G04 #@! TF.GenerationSoftware,KiCad,Pcbnew,(5.1.4)-1*
G04 #@! TF.CreationDate,2021-01-05T14:29:53-08:00*
G04 #@! TF.ProjectId,The-BKF-Ortho,5468652d-424b-4462-9d4f-7274686f2e6b,rev?*
G04 #@! TF.SameCoordinates,Original*
G04 #@! TF.FileFunction,Profile,NP*
%FSLAX46Y46*%
G04 Gerber Fmt 4.6, Leading zero omitted, Abs format (unit mm)*
G04 Created by KiCad (PCBNEW (5.1.4)-1) date 2021-01-05 14:29:53*
%MOMM*%
%LPD*%
G04 APERTURE LIST*
%ADD10C,0.050000*%
G04 APERTURE END LIST*
D10*
X11850741Y-99280878D02*
G75*
G02X5793740Y-104764840I-6142374J697272D01*
G01*
X11883379Y-88145688D02*
G75*
G02X14030960Y-85737700I2483013J-52831D01*
G01*
X16711099Y-83365329D02*
G75*
G02X14655800Y-85740680I-2502491J88448D01*
G01*
X14655800Y-85740240D02*
X14033500Y-85737700D01*
X11851640Y-99280980D02*
X11882120Y-88145620D01*
X294383543Y-104780691D02*
G75*
G02X288175700Y-99448620I-62169J6207384D01*
G01*
X286052260Y-85737700D02*
X285676340Y-85732620D01*
X295178480Y-123814840D02*
X276341840Y-123809760D01*
X283347160Y-83220560D02*
X283377640Y-72788780D01*
X5796280Y-104764840D02*
X4879340Y-104759760D01*
X2367280Y-121312940D02*
X2377440Y-107170220D01*
X23804880Y-123814840D02*
X4777740Y-123827540D01*
X288135060Y-88201500D02*
X288175700Y-99448620D01*
X297654980Y-107266740D02*
X297672760Y-121404380D01*
X294383460Y-104780080D02*
X295241980Y-104762300D01*
X16670020Y-72933560D02*
X16710660Y-83362800D01*
X26202640Y-126329440D02*
X26174700Y-136761220D01*
X273827240Y-126212600D02*
X273827240Y-136591040D01*
X277101300Y-66682620D02*
X22786340Y-66659760D01*
X297671797Y-121403883D02*
G75*
G02X295178480Y-123814840I-2462989J52402D01*
G01*
X295241540Y-104763159D02*
G75*
G02X297654980Y-107266740I-52459J-2465633D01*
G01*
X4778585Y-123826860D02*
G75*
G02X2367206Y-121312296I52420J2463765D01*
G01*
X2378298Y-107170715D02*
G75*
G02X4879340Y-104759760I2463094J-52404D01*
G01*
X23804872Y-123815342D02*
G75*
G02X26203080Y-126329591I-65591J-2463450D01*
G01*
X273827612Y-126212605D02*
G75*
G02X276341991Y-123809320I2463580J-60514D01*
G01*
X285676380Y-85731878D02*
G75*
G02X283346720Y-83220409I134139J2460670D01*
G01*
X286052153Y-85738372D02*
G75*
G02X288135060Y-88201500I-388072J-2440420D01*
G01*
X32448500Y-142867380D02*
X267721080Y-142862300D01*
X277102412Y-66682530D02*
G75*
G02X283377640Y-72788780I76214J-6199243D01*
G01*
X273827310Y-136591040D02*
G75*
G02X267721080Y-142862300I-6196683J-74786D01*
G01*
X32447373Y-142866056D02*
G75*
G02X26173575Y-136761220I-76199J6197829D01*
G01*
X16670075Y-72934990D02*
G75*
G02X22786340Y-66659760I6199098J76216D01*
G01*
M02*
