M48
; DRILL file {KiCad (5.1.4)-1} date 1/5/2021 2:29:55 PM
; FORMAT={-:-/ absolute / inch / decimal}
; #@! TF.CreationDate,2021-01-05T14:29:55-08:00
; #@! TF.GenerationSoftware,Kicad,Pcbnew,(5.1.4)-1
; #@! TF.FileFunction,Plated,1,2,PTH
FMAT,2
INCH
T1C0.0157
T2C0.0394
T3C0.0430
T4C0.0579
T5C0.1181
%
G90
G05
T1
X7.78Y-5.45
T2
X9.2813Y-5.1433
X9.2813Y-5.4504
X2.5312Y-3.6433
X2.5312Y-3.9504
X8.5312Y-4.3933
X8.5312Y-4.7004
X8.5312Y-2.8933
X8.5312Y-3.2004
X4.7344Y-2.8933
X4.7344Y-3.2004
X10.0313Y-5.1433
X10.0313Y-5.4504
X10.1719Y-3.6433
X10.1719Y-3.9504
X1.7812Y-2.8933
X1.7812Y-3.2004
X5.5312Y-4.3933
X5.5312Y-4.7004
X8.5312Y-3.6433
X8.5312Y-3.9504
X2.3777Y-4.875
X2.6848Y-4.875
X6.3281Y-2.8933
X6.3281Y-3.2004
X2.5312Y-4.3933
X2.5312Y-4.7004
X8.5313Y-5.1433
X8.5313Y-5.4504
X4.0312Y-3.6433
X4.0312Y-3.9504
X5.5781Y-5.1433
X5.5781Y-5.4504
X3.2812Y-3.6433
X3.2812Y-3.9504
X1.8281Y-5.1434
X1.8281Y-5.4504
X1.6406Y-3.6433
X1.6406Y-3.9504
X6.2812Y-4.3933
X6.2812Y-4.7004
X7.7812Y-2.8933
X7.7812Y-3.2004
X3.2812Y-4.3933
X3.2812Y-4.7004
X3.2812Y-2.8933
X3.2812Y-3.2004
X3.8906Y-5.1433
X3.8906Y-5.4504
X1.6406Y-2.8933
X1.6406Y-3.2004
X4.7812Y-4.3933
X4.7812Y-4.7004
X9.2812Y-2.8933
X9.2812Y-3.2004
X9.2812Y-3.6433
X9.2812Y-3.9504
X7.0312Y-4.3933
X7.0312Y-4.7004
X7.7812Y-3.6433
X7.7812Y-3.9504
X4.7344Y-3.6433
X4.7344Y-3.9504
X9.2812Y-4.3933
X9.2812Y-4.7004
X10.0312Y-2.8933
X10.0312Y-3.2004
X10.0312Y-4.3933
X10.0312Y-4.7004
X10.9688Y-4.3933
X10.9688Y-4.7004
X1.6406Y-4.3933
X1.6406Y-4.7004
X3.7969Y-5.1433
X3.7969Y-5.4504
X10.1719Y-2.8933
X10.1719Y-3.2004
X4.0312Y-4.3933
X4.0312Y-4.7004
X7.0312Y-2.8933
X7.0312Y-3.2004
X2.5312Y-2.8933
X2.5312Y-3.2004
X7.7812Y-4.3933
X7.7812Y-4.7004
X10.0312Y-3.6433
X10.0312Y-3.9504
X7.0313Y-5.1433
X7.0313Y-5.4504
X4.0312Y-2.8933
X4.0312Y-3.2004
X7.0312Y-3.6433
X7.0312Y-3.9504
X1.7812Y-3.6433
X1.7812Y-3.9504
X6.3281Y-3.6433
X6.3281Y-3.9504
X1.7812Y-4.3933
X1.7812Y-4.7004
T3
X5.6063Y-2.7781
X5.6063Y-2.8781
X5.6063Y-2.9781
X5.6063Y-3.0781
X5.6063Y-3.1781
X5.6063Y-3.2781
X5.6063Y-3.3781
X5.6063Y-3.4781
X5.6063Y-3.5781
X5.6063Y-3.6781
X5.6063Y-3.7781
X5.6063Y-3.8781
X6.2062Y-2.7781
X6.2062Y-2.8781
X6.2062Y-2.9781
X6.2062Y-3.0781
X6.2062Y-3.1781
X6.2062Y-3.2781
X6.2062Y-3.3781
X6.2062Y-3.4781
X6.2062Y-3.5781
X6.2062Y-3.6781
X6.2062Y-3.7781
X6.2062Y-3.8781
T4
X7.3062Y-4.7
X7.5562Y-4.6
X3.5562Y-3.95
X3.8062Y-3.85
X0.8375Y-3.95
X1.0875Y-3.85
X5.0562Y-3.95
X5.3062Y-3.85
X1.4Y-5.45
X1.65Y-5.35
X3.5562Y-3.2
X3.8062Y-3.1
X3.275Y-5.45
X3.525Y-5.35
X6.5562Y-3.2
X6.8062Y-3.1
X8.0563Y-4.7
X8.3063Y-4.6
X5.8062Y-5.45
X6.0562Y-5.35
X9.5563Y-3.95
X9.8063Y-3.85
X9.5563Y-3.2
X9.8063Y-3.1
X4.3062Y-5.45
X4.5562Y-5.35
X8.8063Y-3.95
X9.0563Y-3.85
X8.0563Y-3.2
X8.3063Y-3.1
X9.5563Y-5.45
X9.8063Y-5.35
X7.3062Y-3.95
X7.5562Y-3.85
X2.0562Y-5.45
X2.3062Y-5.35
X10.4Y-4.7
X10.65Y-4.6
X2.0562Y-3.95
X2.3062Y-3.85
X1.3062Y-5.45
X1.5562Y-5.35
X4.3062Y-4.7
X4.5562Y-4.6
X6.5562Y-5.45
X6.8062Y-5.35
X5.0562Y-4.7
X5.3062Y-4.6
X2.8062Y-5.45
X3.0562Y-5.35
X6.0875Y-5.45
X6.3375Y-5.35
X2.8062Y-4.7
X3.0562Y-4.6
X1.025Y-3.95
X1.275Y-3.85
X7.3062Y-3.2
X7.5562Y-3.1
X1.1187Y-3.2
X1.3687Y-3.1
X6.5562Y-4.7
X6.8062Y-4.6
X2.0562Y-4.7
X2.3062Y-4.6
X2.3375Y-5.45
X2.5875Y-5.35
X5.8062Y-3.95
X6.0562Y-3.85
X8.0563Y-5.45
X8.3063Y-5.35
X4.3062Y-3.2
X4.5562Y-3.1
X8.8063Y-4.7
X9.0563Y-4.6
X8.8063Y-3.2
X9.0563Y-3.1
X5.8062Y-4.7
X6.0562Y-4.6
X8.0563Y-3.95
X8.3063Y-3.85
X11.2438Y-4.7
X11.4938Y-4.6
X4.3062Y-3.95
X4.5562Y-3.85
X9.5563Y-4.7
X9.8063Y-4.6
X2.0562Y-3.2
X2.3062Y-3.1
X10.5875Y-3.95
X10.8375Y-3.85
X0.8375Y-4.7
X1.0875Y-4.6
X10.4938Y-3.2
X10.7438Y-3.1
X7.3062Y-5.45
X7.5562Y-5.35
X5.0562Y-3.2
X5.3062Y-3.1
X5.8062Y-3.2
X6.0562Y-3.1
X6.5562Y-3.95
X6.8062Y-3.85
X10.3063Y-5.45
X10.5563Y-5.35
X3.5562Y-4.7
X3.8062Y-4.6
X8.8063Y-5.45
X9.0563Y-5.35
X2.8062Y-3.2
X3.0562Y-3.1
X2.8062Y-3.95
X3.0562Y-3.85
T5
X1.7813Y-3.375
X7.0313Y-4.125
X10.0313Y-3.375
X1.7813Y-4.875
X10.0313Y-4.875
X4.7813Y-4.125
T0
M30
