M48
; DRILL file {KiCad (5.1.4)-1} date 1/5/2021 2:29:55 PM
; FORMAT={-:-/ absolute / inch / decimal}
; #@! TF.CreationDate,2021-01-05T14:29:55-08:00
; #@! TF.GenerationSoftware,Kicad,Pcbnew,(5.1.4)-1
; #@! TF.FileFunction,NonPlated,1,2,NPTH
FMAT,2
INCH
T1C0.0689
T2C0.1200
T3C0.1570
%
G90
G05
T1
X0.7375Y-3.75
X1.1375Y-3.75
X4.9562Y-3.75
X5.3563Y-3.75
X1.3Y-5.25
X1.7Y-5.25
X3.4562Y-3.0
X3.8562Y-3.0
X3.175Y-5.25
X3.575Y-5.25
X6.4562Y-3.0
X6.8563Y-3.0
X7.9562Y-4.5
X8.3562Y-4.5
X5.7062Y-5.25
X6.1063Y-5.25
X9.4562Y-3.75
X9.8562Y-3.75
X9.4562Y-3.0
X9.8562Y-3.0
X4.2062Y-5.25
X4.6063Y-5.25
X8.7062Y-3.75
X9.1062Y-3.75
X7.9562Y-3.0
X8.3562Y-3.0
X9.4562Y-5.25
X9.8562Y-5.25
X7.2062Y-3.75
X7.6063Y-3.75
X1.9563Y-5.25
X2.3562Y-5.25
X10.3Y-4.5
X10.7Y-4.5
X1.9563Y-3.75
X2.3562Y-3.75
X1.2063Y-5.25
X1.6062Y-5.25
X4.2062Y-4.5
X4.6063Y-4.5
X6.4562Y-5.25
X6.8563Y-5.25
X4.9562Y-4.5
X5.3563Y-4.5
X2.7062Y-5.25
X3.1062Y-5.25
X5.9875Y-5.25
X6.3875Y-5.25
X2.7062Y-4.5
X3.1062Y-4.5
X0.925Y-3.75
X1.325Y-3.75
X7.2062Y-3.0
X7.6063Y-3.0
X1.0188Y-3.0
X1.4187Y-3.0
X6.4562Y-4.5
X6.8563Y-4.5
X1.9563Y-4.5
X2.3562Y-4.5
X2.2375Y-5.25
X2.6375Y-5.25
X5.7062Y-3.75
X6.1063Y-3.75
X7.9562Y-5.25
X8.3562Y-5.25
X4.2062Y-3.0
X4.6063Y-3.0
X8.7062Y-4.5
X9.1062Y-4.5
X8.7062Y-3.0
X9.1062Y-3.0
X5.7062Y-4.5
X6.1063Y-4.5
X7.9562Y-3.75
X8.3562Y-3.75
X11.1437Y-4.5
X11.5437Y-4.5
X4.2062Y-3.75
X4.6063Y-3.75
X9.4562Y-4.5
X9.8562Y-4.5
X1.9563Y-3.0
X2.3562Y-3.0
X10.4875Y-3.75
X10.8875Y-3.75
X0.7375Y-4.5
X1.1375Y-4.5
X10.3937Y-3.0
X10.7937Y-3.0
X7.2062Y-5.25
X7.6063Y-5.25
X4.9562Y-3.0
X5.3563Y-3.0
X5.7062Y-3.0
X6.1063Y-3.0
X6.4562Y-3.75
X6.8563Y-3.75
X10.2062Y-5.25
X10.6062Y-5.25
X3.4562Y-4.5
X3.8562Y-4.5
X8.7062Y-5.25
X9.1062Y-5.25
X2.7062Y-3.0
X3.1062Y-3.0
X2.7062Y-3.75
X3.1062Y-3.75
X7.2062Y-4.5
X7.6063Y-4.5
X3.4562Y-3.75
X3.8562Y-3.75
T2
X0.4688Y-4.775
X1.4062Y-4.775
X6.6562Y-5.525
X8.1562Y-5.525
X3.6562Y-5.525
X8.1562Y-5.525
X3.6562Y-5.525
X5.1562Y-5.525
X5.9062Y-5.525
X7.4062Y-5.525
X4.219Y-5.525
X8.156Y-5.525
T3
X3.6562Y-4.5
X8.9062Y-5.25
X2.9062Y-3.0
X2.9062Y-3.75
X7.4062Y-4.5
X3.6562Y-3.75
X0.9375Y-3.75
X5.1562Y-3.75
X1.5Y-5.25
X3.6562Y-3.0
X3.375Y-5.25
X6.6562Y-3.0
X8.1562Y-4.5
X3.6562Y-4.925
X5.9062Y-5.25
X8.1562Y-4.925
X9.6562Y-3.75
X9.6562Y-3.0
X3.6562Y-4.925
X4.4062Y-5.25
X5.1562Y-4.925
X8.9062Y-3.75
X8.1562Y-3.0
X9.6562Y-5.25
X7.4062Y-3.75
X2.1562Y-5.25
X10.5Y-4.5
X2.1562Y-3.75
X1.4062Y-5.25
X4.4062Y-4.5
X5.9062Y-4.925
X6.6562Y-5.25
X7.4062Y-4.925
X5.1562Y-4.5
X2.9062Y-5.25
X4.219Y-4.925
X6.1875Y-5.25
X8.156Y-4.925
X2.9062Y-4.5
X1.125Y-3.75
X7.4062Y-3.0
X1.2188Y-3.0
X6.6562Y-4.5
X2.1562Y-4.5
X2.4375Y-5.25
X5.9062Y-3.75
X8.1562Y-5.25
X4.4062Y-3.0
X8.9062Y-4.5
X8.9062Y-3.0
X5.9062Y-4.5
X8.1562Y-3.75
X11.3438Y-4.5
X4.4062Y-3.75
X9.6562Y-4.5
X2.1562Y-3.0
X10.6875Y-3.75
X0.4688Y-4.175
X0.9375Y-4.5
X1.4062Y-4.175
X10.5938Y-3.0
X6.6562Y-4.925
X7.4062Y-5.25
X8.1562Y-4.925
X5.1562Y-3.0
X5.9062Y-3.0
X6.6562Y-3.75
X10.4062Y-5.25
T0
M30
