  0
SECTION
  2
HEADER
  9
$ACADVER
  1
AC1009
  9
$EXTMIN
 10
0.0
 20
0.0
 30
0.0
  9
$EXTMAX
 10
1000.0
 20
1000.0
 30
0.0
  9
$FILLMODE
 70
 0
  9
$SPLFRAME
 70
 1
  0
ENDSEC
  0
SECTION
  2
TABLES
  0
TABLE
  2
LAYER
 70
1
  0
LAYER
  2
0
 70
     0
 62
     7
  6
CONTINUOUS
  0
ENDTAB
  0
ENDSEC
  0
SECTION
  2
ENTITIES
  0
LINE
  8
0
 62
     0
 10
308.522
 20
92.6853
 30
0.0
 11
308.756
 21
92.6758
 31
0.0
  0
LINE
  8
0
 62
     0
 10
308.756
 20
92.6758
 30
0.0
 11
308.991
 21
92.6497
 31
0.0
  0
LINE
  8
0
 62
     0
 10
308.991
 20
92.6497
 30
0.0
 11
309.222
 21
92.6028
 31
0.0
  0
LINE
  8
0
 62
     0
 10
309.222
 20
92.6028
 30
0.0
 11
309.448
 21
92.5393
 31
0.0
  0
LINE
  8
0
 62
     0
 10
309.448
 20
92.5393
 30
0.0
 11
309.67
 21
92.4567
 31
0.0
  0
LINE
  8
0
 62
     0
 10
309.67
 20
92.4567
 30
0.0
 11
309.882
 21
92.359
 31
0.0
  0
LINE
  8
0
 62
     0
 10
309.882
 20
92.359
 30
0.0
 11
310.089
 21
92.2433
 31
0.0
  0
LINE
  8
0
 62
     0
 10
310.089
 20
92.2433
 30
0.0
 11
310.285
 21
92.1135
 31
0.0
  0
LINE
  8
0
 62
     0
 10
310.285
 20
92.1135
 30
0.0
 11
310.469
 21
91.9674
 31
0.0
  0
LINE
  8
0
 62
     0
 10
310.469
 20
91.9674
 30
0.0
 11
310.643
 21
91.8076
 31
0.0
  0
LINE
  8
0
 62
     0
 10
310.643
 20
91.8076
 30
0.0
 11
310.803
 21
91.634
 31
0.0
  0
LINE
  8
0
 62
     0
 10
310.803
 20
91.634
 30
0.0
 11
310.949
 21
91.4495
 31
0.0
  0
LINE
  8
0
 62
     0
 10
310.949
 20
91.4495
 30
0.0
 11
311.078
 21
91.2537
 31
0.0
  0
LINE
  8
0
 62
     0
 10
311.078
 20
91.2537
 30
0.0
 11
311.194
 21
91.047
 31
0.0
  0
LINE
  8
0
 62
     0
 10
311.194
 20
91.047
 30
0.0
 11
311.292
 21
90.8332
 31
0.0
  0
LINE
  8
0
 62
     0
 10
311.292
 20
90.8332
 30
0.0
 11
311.375
 21
90.6127
 31
0.0
  0
LINE
  8
0
 62
     0
 10
311.375
 20
90.6127
 30
0.0
 11
311.438
 21
90.3855
 31
0.0
  0
LINE
  8
0
 62
     0
 10
311.438
 20
90.3855
 30
0.0
 11
311.485
 21
90.1555
 31
0.0
  0
LINE
  8
0
 62
     0
 10
311.485
 20
90.1555
 30
0.0
 11
311.511
 21
89.9213
 31
0.0
  0
LINE
  8
0
 62
     0
 10
311.511
 20
89.9213
 30
0.0
 11
311.522
 21
89.6856
 31
0.0
  0
LINE
  8
0
 62
     0
 10
311.522
 20
89.6856
 30
0.0
 11
311.522
 21
3.33347
 31
0.0
  0
LINE
  8
0
 62
     0
 10
311.522
 20
3.33347
 30
0.0
 11
311.511
 21
3.09921
 31
0.0
  0
LINE
  8
0
 62
     0
 10
311.511
 20
3.09921
 30
0.0
 11
311.485
 21
2.86494
 31
0.0
  0
LINE
  8
0
 62
     0
 10
311.485
 20
2.86494
 30
0.0
 11
311.438
 21
2.63343
 31
0.0
  0
LINE
  8
0
 62
     0
 10
311.438
 20
2.63343
 30
0.0
 11
311.375
 21
2.40743
 31
0.0
  0
LINE
  8
0
 62
     0
 10
311.375
 20
2.40743
 30
0.0
 11
311.292
 21
2.18557
 31
0.0
  0
LINE
  8
0
 62
     0
 10
311.292
 20
2.18557
 30
0.0
 11
311.194
 21
1.97335
 31
0.0
  0
LINE
  8
0
 62
     0
 10
311.194
 20
1.97335
 30
0.0
 11
311.078
 21
1.76664
 31
0.0
  0
LINE
  8
0
 62
     0
 10
311.078
 20
1.76664
 30
0.0
 11
310.949
 21
1.57097
 31
0.0
  0
LINE
  8
0
 62
     0
 10
310.949
 20
1.57097
 30
0.0
 11
310.803
 21
1.38631
 31
0.0
  0
LINE
  8
0
 62
     0
 10
310.803
 20
1.38631
 30
0.0
 11
310.643
 21
1.21267
 31
0.0
  0
LINE
  8
0
 62
     0
 10
310.643
 20
1.21267
 30
0.0
 11
310.469
 21
1.05282
 31
0.0
  0
LINE
  8
0
 62
     0
 10
310.469
 20
1.05282
 30
0.0
 11
310.285
 21
0.906748
 31
0.0
  0
LINE
  8
0
 62
     0
 10
310.285
 20
0.906748
 30
0.0
 11
310.089
 21
0.777215
 31
0.0
  0
LINE
  8
0
 62
     0
 10
310.089
 20
0.777215
 30
0.0
 11
309.882
 21
0.661458
 31
0.0
  0
LINE
  8
0
 62
     0
 10
309.882
 20
0.661458
 30
0.0
 11
309.67
 21
0.563619
 31
0.0
  0
LINE
  8
0
 62
     0
 10
309.67
 20
0.563619
 30
0.0
 11
309.448
 21
0.480935
 31
0.0
  0
LINE
  8
0
 62
     0
 10
309.448
 20
0.480935
 30
0.0
 11
309.222
 21
0.417544
 31
0.0
  0
LINE
  8
0
 62
     0
 10
309.222
 20
0.417544
 30
0.0
 11
308.991
 21
0.370692
 31
0.0
  0
LINE
  8
0
 62
     0
 10
308.991
 20
0.370692
 30
0.0
 11
308.756
 21
0.34451
 31
0.0
  0
LINE
  8
0
 62
     0
 10
308.756
 20
0.34451
 30
0.0
 11
308.522
 21
0.333485
 31
0.0
  0
LINE
  8
0
 62
     0
 10
308.522
 20
0.333485
 30
0.0
 11
3.09507
 21
0.333485
 31
0.0
  0
LINE
  8
0
 62
     0
 10
3.09507
 20
0.333485
 30
0.0
 11
2.85943
 21
0.34451
 31
0.0
  0
LINE
  8
0
 62
     0
 10
2.85943
 20
0.34451
 30
0.0
 11
2.62516
 21
0.370692
 31
0.0
  0
LINE
  8
0
 62
     0
 10
2.62516
 20
0.370692
 30
0.0
 11
2.39503
 21
0.417544
 31
0.0
  0
LINE
  8
0
 62
     0
 10
2.39503
 20
0.417544
 30
0.0
 11
2.16765
 21
0.480935
 31
0.0
  0
LINE
  8
0
 62
     0
 10
2.16765
 20
0.480935
 30
0.0
 11
1.94717
 21
0.563619
 31
0.0
  0
LINE
  8
0
 62
     0
 10
1.94717
 20
0.563619
 30
0.0
 11
1.73357
 21
0.661458
 31
0.0
  0
LINE
  8
0
 62
     0
 10
1.73357
 20
0.661458
 30
0.0
 11
1.52687
 21
0.777215
 31
0.0
  0
LINE
  8
0
 62
     0
 10
1.52687
 20
0.777215
 30
0.0
 11
1.33119
 21
0.906748
 31
0.0
  0
LINE
  8
0
 62
     0
 10
1.33119
 20
0.906748
 30
0.0
 11
1.14653
 21
1.05282
 31
0.0
  0
LINE
  8
0
 62
     0
 10
1.14653
 20
1.05282
 30
0.0
 11
0.972894
 21
1.21267
 31
0.0
  0
LINE
  8
0
 62
     0
 10
0.972894
 20
1.21267
 30
0.0
 11
0.813043
 21
1.38631
 31
0.0
  0
LINE
  8
0
 62
     0
 10
0.813043
 20
1.38631
 30
0.0
 11
0.666972
 21
1.57097
 31
0.0
  0
LINE
  8
0
 62
     0
 10
0.666972
 20
1.57097
 30
0.0
 11
0.537436
 21
1.76664
 31
0.0
  0
LINE
  8
0
 62
     0
 10
0.537436
 20
1.76664
 30
0.0
 11
0.421679
 21
1.97335
 31
0.0
  0
LINE
  8
0
 62
     0
 10
0.421679
 20
1.97335
 30
0.0
 11
0.323839
 21
2.18557
 31
0.0
  0
LINE
  8
0
 62
     0
 10
0.323839
 20
2.18557
 30
0.0
 11
0.241157
 21
2.40743
 31
0.0
  0
LINE
  8
0
 62
     0
 10
0.241157
 20
2.40743
 30
0.0
 11
0.177767
 21
2.63343
 31
0.0
  0
LINE
  8
0
 62
     0
 10
0.177767
 20
2.63343
 30
0.0
 11
0.130914
 21
2.86494
 31
0.0
  0
LINE
  8
0
 62
     0
 10
0.130914
 20
2.86494
 30
0.0
 11
0.104731
 21
3.09921
 31
0.0
  0
LINE
  8
0
 62
     0
 10
0.104731
 20
3.09921
 30
0.0
 11
0.0950846
 21
3.33485
 31
0.0
  0
LINE
  8
0
 62
     0
 10
0.0950846
 20
3.33485
 30
0.0
 11
0.0950846
 21
89.6856
 31
0.0
  0
LINE
  8
0
 62
     0
 10
0.0950846
 20
89.6856
 30
0.0
 11
0.104731
 21
89.9213
 31
0.0
  0
LINE
  8
0
 62
     0
 10
0.104731
 20
89.9213
 30
0.0
 11
0.130914
 21
90.1555
 31
0.0
  0
LINE
  8
0
 62
     0
 10
0.130914
 20
90.1555
 30
0.0
 11
0.177767
 21
90.3855
 31
0.0
  0
LINE
  8
0
 62
     0
 10
0.177767
 20
90.3855
 30
0.0
 11
0.241157
 21
90.6127
 31
0.0
  0
LINE
  8
0
 62
     0
 10
0.241157
 20
90.6127
 30
0.0
 11
0.323839
 21
90.8332
 31
0.0
  0
LINE
  8
0
 62
     0
 10
0.323839
 20
90.8332
 30
0.0
 11
0.421679
 21
91.047
 31
0.0
  0
LINE
  8
0
 62
     0
 10
0.421679
 20
91.047
 30
0.0
 11
0.537436
 21
91.2537
 31
0.0
  0
LINE
  8
0
 62
     0
 10
0.537436
 20
91.2537
 30
0.0
 11
0.666972
 21
91.4495
 31
0.0
  0
LINE
  8
0
 62
     0
 10
0.666972
 20
91.4495
 30
0.0
 11
0.813043
 21
91.634
 31
0.0
  0
LINE
  8
0
 62
     0
 10
0.813043
 20
91.634
 30
0.0
 11
0.972894
 21
91.8076
 31
0.0
  0
LINE
  8
0
 62
     0
 10
0.972894
 20
91.8076
 30
0.0
 11
1.14653
 21
91.9674
 31
0.0
  0
LINE
  8
0
 62
     0
 10
1.14653
 20
91.9674
 30
0.0
 11
1.33119
 21
92.1135
 31
0.0
  0
LINE
  8
0
 62
     0
 10
1.33119
 20
92.1135
 30
0.0
 11
1.52687
 21
92.2433
 31
0.0
  0
LINE
  8
0
 62
     0
 10
1.52687
 20
92.2433
 30
0.0
 11
1.73357
 21
92.359
 31
0.0
  0
LINE
  8
0
 62
     0
 10
1.73357
 20
92.359
 30
0.0
 11
1.94717
 21
92.4567
 31
0.0
  0
LINE
  8
0
 62
     0
 10
1.94717
 20
92.4567
 30
0.0
 11
2.16765
 21
92.5393
 31
0.0
  0
LINE
  8
0
 62
     0
 10
2.16765
 20
92.5393
 30
0.0
 11
2.39503
 21
92.6028
 31
0.0
  0
LINE
  8
0
 62
     0
 10
2.39503
 20
92.6028
 30
0.0
 11
2.62516
 21
92.6497
 31
0.0
  0
LINE
  8
0
 62
     0
 10
2.62516
 20
92.6497
 30
0.0
 11
2.85943
 21
92.6758
 31
0.0
  0
LINE
  8
0
 62
     0
 10
2.85943
 20
92.6758
 30
0.0
 11
3.09507
 21
92.6853
 31
0.0
  0
LINE
  8
0
 62
     0
 10
3.09507
 20
92.6853
 30
0.0
 11
308.522
 21
92.6853
 31
0.0
  0
LINE
  8
0
 62
     0
 10
3.65181
 20
6.00273
 30
0.0
 11
3.18602
 21
5.76573
 31
0.0
  0
LINE
  8
0
 62
     0
 10
3.18602
 20
5.76573
 30
0.0
 11
2.81395
 21
5.39365
 31
0.0
  0
LINE
  8
0
 62
     0
 10
2.81395
 20
5.39365
 30
0.0
 11
2.57693
 21
4.92647
 31
0.0
  0
LINE
  8
0
 62
     0
 10
2.57693
 20
4.92647
 30
0.0
 11
2.49425
 21
4.40972
 31
0.0
  0
LINE
  8
0
 62
     0
 10
2.49425
 20
4.40972
 30
0.0
 11
2.57693
 21
3.8916
 31
0.0
  0
LINE
  8
0
 62
     0
 10
2.57693
 20
3.8916
 30
0.0
 11
2.81395
 21
3.42442
 31
0.0
  0
LINE
  8
0
 62
     0
 10
2.81395
 20
3.42442
 30
0.0
 11
3.18602
 21
3.05373
 31
0.0
  0
LINE
  8
0
 62
     0
 10
3.18602
 20
3.05373
 30
0.0
 11
3.65181
 21
2.81671
 31
0.0
  0
LINE
  8
0
 62
     0
 10
3.65181
 20
2.81671
 30
0.0
 11
4.16994
 21
2.73541
 31
0.0
  0
LINE
  8
0
 62
     0
 10
4.16994
 20
2.73541
 30
0.0
 11
4.6881
 21
2.81671
 31
0.0
  0
LINE
  8
0
 62
     0
 10
4.6881
 20
2.81671
 30
0.0
 11
5.15387
 21
3.05373
 31
0.0
  0
LINE
  8
0
 62
     0
 10
5.15387
 20
3.05373
 30
0.0
 11
5.52595
 21
3.42442
 31
0.0
  0
LINE
  8
0
 62
     0
 10
5.52595
 20
3.42442
 30
0.0
 11
5.76294
 21
3.8916
 31
0.0
  0
LINE
  8
0
 62
     0
 10
5.76294
 20
3.8916
 30
0.0
 11
5.84426
 21
4.40972
 31
0.0
  0
LINE
  8
0
 62
     0
 10
5.84426
 20
4.40972
 30
0.0
 11
5.76294
 21
4.92647
 31
0.0
  0
LINE
  8
0
 62
     0
 10
5.76294
 20
4.92647
 30
0.0
 11
5.52595
 21
5.39365
 31
0.0
  0
LINE
  8
0
 62
     0
 10
5.52595
 20
5.39365
 30
0.0
 11
5.15387
 21
5.76573
 31
0.0
  0
LINE
  8
0
 62
     0
 10
5.15387
 20
5.76573
 30
0.0
 11
4.6881
 21
6.00273
 31
0.0
  0
LINE
  8
0
 62
     0
 10
4.6881
 20
6.00273
 30
0.0
 11
4.16994
 21
6.08404
 31
0.0
  0
LINE
  8
0
 62
     0
 10
4.16994
 20
6.08404
 30
0.0
 11
3.65181
 21
6.00273
 31
0.0
  0
LINE
  8
0
 62
     0
 10
79.4713
 20
6.00273
 30
0.0
 11
79.0042
 21
5.76573
 31
0.0
  0
LINE
  8
0
 62
     0
 10
79.0042
 20
5.76573
 30
0.0
 11
78.6335
 21
5.39365
 31
0.0
  0
LINE
  8
0
 62
     0
 10
78.6335
 20
5.39365
 30
0.0
 11
78.3953
 21
4.92647
 31
0.0
  0
LINE
  8
0
 62
     0
 10
78.3953
 20
4.92647
 30
0.0
 11
78.3138
 21
4.40972
 31
0.0
  0
LINE
  8
0
 62
     0
 10
78.3138
 20
4.40972
 30
0.0
 11
78.3953
 21
3.8916
 31
0.0
  0
LINE
  8
0
 62
     0
 10
78.3953
 20
3.8916
 30
0.0
 11
78.6335
 21
3.42442
 31
0.0
  0
LINE
  8
0
 62
     0
 10
78.6335
 20
3.42442
 30
0.0
 11
79.0042
 21
3.05373
 31
0.0
  0
LINE
  8
0
 62
     0
 10
79.0042
 20
3.05373
 30
0.0
 11
79.4713
 21
2.81671
 31
0.0
  0
LINE
  8
0
 62
     0
 10
79.4713
 20
2.81671
 30
0.0
 11
79.9895
 21
2.73541
 31
0.0
  0
LINE
  8
0
 62
     0
 10
79.9895
 20
2.73541
 30
0.0
 11
80.5064
 21
2.81671
 31
0.0
  0
LINE
  8
0
 62
     0
 10
80.5064
 20
2.81671
 30
0.0
 11
80.9734
 21
3.05373
 31
0.0
  0
LINE
  8
0
 62
     0
 10
80.9734
 20
3.05373
 30
0.0
 11
81.3442
 21
3.42442
 31
0.0
  0
LINE
  8
0
 62
     0
 10
81.3442
 20
3.42442
 30
0.0
 11
81.5827
 21
3.8916
 31
0.0
  0
LINE
  8
0
 62
     0
 10
81.5827
 20
3.8916
 30
0.0
 11
81.6638
 21
4.40972
 31
0.0
  0
LINE
  8
0
 62
     0
 10
81.6638
 20
4.40972
 30
0.0
 11
81.5827
 21
4.92647
 31
0.0
  0
LINE
  8
0
 62
     0
 10
81.5827
 20
4.92647
 30
0.0
 11
81.3442
 21
5.39365
 31
0.0
  0
LINE
  8
0
 62
     0
 10
81.3442
 20
5.39365
 30
0.0
 11
80.9734
 21
5.76573
 31
0.0
  0
LINE
  8
0
 62
     0
 10
80.9734
 20
5.76573
 30
0.0
 11
80.5064
 21
6.00273
 31
0.0
  0
LINE
  8
0
 62
     0
 10
80.5064
 20
6.00273
 30
0.0
 11
79.9895
 21
6.08404
 31
0.0
  0
LINE
  8
0
 62
     0
 10
79.9895
 20
6.08404
 30
0.0
 11
79.4713
 21
6.00273
 31
0.0
  0
LINE
  8
0
 62
     0
 10
155.291
 20
6.00273
 30
0.0
 11
154.824
 21
5.76573
 31
0.0
  0
LINE
  8
0
 62
     0
 10
154.824
 20
5.76573
 30
0.0
 11
154.452
 21
5.39365
 31
0.0
  0
LINE
  8
0
 62
     0
 10
154.452
 20
5.39365
 30
0.0
 11
154.215
 21
4.92647
 31
0.0
  0
LINE
  8
0
 62
     0
 10
154.215
 20
4.92647
 30
0.0
 11
154.132
 21
4.40972
 31
0.0
  0
LINE
  8
0
 62
     0
 10
154.132
 20
4.40972
 30
0.0
 11
154.215
 21
3.8916
 31
0.0
  0
LINE
  8
0
 62
     0
 10
154.215
 20
3.8916
 30
0.0
 11
154.452
 21
3.42442
 31
0.0
  0
LINE
  8
0
 62
     0
 10
154.452
 20
3.42442
 30
0.0
 11
154.824
 21
3.05373
 31
0.0
  0
LINE
  8
0
 62
     0
 10
154.824
 20
3.05373
 30
0.0
 11
155.291
 21
2.81671
 31
0.0
  0
LINE
  8
0
 62
     0
 10
155.291
 20
2.81671
 30
0.0
 11
155.808
 21
2.73541
 31
0.0
  0
LINE
  8
0
 62
     0
 10
155.808
 20
2.73541
 30
0.0
 11
156.326
 21
2.81671
 31
0.0
  0
LINE
  8
0
 62
     0
 10
156.326
 20
2.81671
 30
0.0
 11
156.792
 21
3.05373
 31
0.0
  0
LINE
  8
0
 62
     0
 10
156.792
 20
3.05373
 30
0.0
 11
157.164
 21
3.42442
 31
0.0
  0
LINE
  8
0
 62
     0
 10
157.164
 20
3.42442
 30
0.0
 11
157.401
 21
3.8916
 31
0.0
  0
LINE
  8
0
 62
     0
 10
157.401
 20
3.8916
 30
0.0
 11
157.484
 21
4.40972
 31
0.0
  0
LINE
  8
0
 62
     0
 10
157.484
 20
4.40972
 30
0.0
 11
157.401
 21
4.92647
 31
0.0
  0
LINE
  8
0
 62
     0
 10
157.401
 20
4.92647
 30
0.0
 11
157.164
 21
5.39365
 31
0.0
  0
LINE
  8
0
 62
     0
 10
157.164
 20
5.39365
 30
0.0
 11
156.792
 21
5.76573
 31
0.0
  0
LINE
  8
0
 62
     0
 10
156.792
 20
5.76573
 30
0.0
 11
156.326
 21
6.00273
 31
0.0
  0
LINE
  8
0
 62
     0
 10
156.326
 20
6.00273
 30
0.0
 11
155.808
 21
6.08404
 31
0.0
  0
LINE
  8
0
 62
     0
 10
155.808
 20
6.08404
 30
0.0
 11
155.291
 21
6.00273
 31
0.0
  0
LINE
  8
0
 62
     0
 10
231.109
 20
6.00273
 30
0.0
 11
230.642
 21
5.76573
 31
0.0
  0
LINE
  8
0
 62
     0
 10
230.642
 20
5.76573
 30
0.0
 11
230.271
 21
5.39365
 31
0.0
  0
LINE
  8
0
 62
     0
 10
230.271
 20
5.39365
 30
0.0
 11
230.033
 21
4.92647
 31
0.0
  0
LINE
  8
0
 62
     0
 10
230.033
 20
4.92647
 30
0.0
 11
229.952
 21
4.40972
 31
0.0
  0
LINE
  8
0
 62
     0
 10
229.952
 20
4.40972
 30
0.0
 11
230.033
 21
3.8916
 31
0.0
  0
LINE
  8
0
 62
     0
 10
230.033
 20
3.8916
 30
0.0
 11
230.271
 21
3.42442
 31
0.0
  0
LINE
  8
0
 62
     0
 10
230.271
 20
3.42442
 30
0.0
 11
230.642
 21
3.05373
 31
0.0
  0
LINE
  8
0
 62
     0
 10
230.642
 20
3.05373
 30
0.0
 11
231.109
 21
2.81671
 31
0.0
  0
LINE
  8
0
 62
     0
 10
231.109
 20
2.81671
 30
0.0
 11
231.628
 21
2.73541
 31
0.0
  0
LINE
  8
0
 62
     0
 10
231.628
 20
2.73541
 30
0.0
 11
232.144
 21
2.81671
 31
0.0
  0
LINE
  8
0
 62
     0
 10
232.144
 20
2.81671
 30
0.0
 11
232.611
 21
3.05373
 31
0.0
  0
LINE
  8
0
 62
     0
 10
232.611
 20
3.05373
 30
0.0
 11
232.982
 21
3.42442
 31
0.0
  0
LINE
  8
0
 62
     0
 10
232.982
 20
3.42442
 30
0.0
 11
233.221
 21
3.8916
 31
0.0
  0
LINE
  8
0
 62
     0
 10
233.221
 20
3.8916
 30
0.0
 11
233.302
 21
4.40972
 31
0.0
  0
LINE
  8
0
 62
     0
 10
233.302
 20
4.40972
 30
0.0
 11
233.221
 21
4.92647
 31
0.0
  0
LINE
  8
0
 62
     0
 10
233.221
 20
4.92647
 30
0.0
 11
232.982
 21
5.39365
 31
0.0
  0
LINE
  8
0
 62
     0
 10
232.982
 20
5.39365
 30
0.0
 11
232.611
 21
5.76573
 31
0.0
  0
LINE
  8
0
 62
     0
 10
232.611
 20
5.76573
 30
0.0
 11
232.144
 21
6.00273
 31
0.0
  0
LINE
  8
0
 62
     0
 10
232.144
 20
6.00273
 30
0.0
 11
231.628
 21
6.08404
 31
0.0
  0
LINE
  8
0
 62
     0
 10
231.628
 20
6.08404
 30
0.0
 11
231.109
 21
6.00273
 31
0.0
  0
LINE
  8
0
 62
     0
 10
306.929
 20
6.00273
 30
0.0
 11
306.462
 21
5.76573
 31
0.0
  0
LINE
  8
0
 62
     0
 10
306.462
 20
5.76573
 30
0.0
 11
306.09
 21
5.39365
 31
0.0
  0
LINE
  8
0
 62
     0
 10
306.09
 20
5.39365
 30
0.0
 11
305.853
 21
4.92647
 31
0.0
  0
LINE
  8
0
 62
     0
 10
305.853
 20
4.92647
 30
0.0
 11
305.772
 21
4.40972
 31
0.0
  0
LINE
  8
0
 62
     0
 10
305.772
 20
4.40972
 30
0.0
 11
305.853
 21
3.8916
 31
0.0
  0
LINE
  8
0
 62
     0
 10
305.853
 20
3.8916
 30
0.0
 11
306.09
 21
3.42442
 31
0.0
  0
LINE
  8
0
 62
     0
 10
306.09
 20
3.42442
 30
0.0
 11
306.462
 21
3.05373
 31
0.0
  0
LINE
  8
0
 62
     0
 10
306.462
 20
3.05373
 30
0.0
 11
306.929
 21
2.81671
 31
0.0
  0
LINE
  8
0
 62
     0
 10
306.929
 20
2.81671
 30
0.0
 11
307.446
 21
2.73541
 31
0.0
  0
LINE
  8
0
 62
     0
 10
307.446
 20
2.73541
 30
0.0
 11
307.964
 21
2.81671
 31
0.0
  0
LINE
  8
0
 62
     0
 10
307.964
 20
2.81671
 30
0.0
 11
308.431
 21
3.05373
 31
0.0
  0
LINE
  8
0
 62
     0
 10
308.431
 20
3.05373
 30
0.0
 11
308.802
 21
3.42442
 31
0.0
  0
LINE
  8
0
 62
     0
 10
308.802
 20
3.42442
 30
0.0
 11
309.039
 21
3.8916
 31
0.0
  0
LINE
  8
0
 62
     0
 10
309.039
 20
3.8916
 30
0.0
 11
309.122
 21
4.40972
 31
0.0
  0
LINE
  8
0
 62
     0
 10
309.122
 20
4.40972
 30
0.0
 11
309.039
 21
4.92647
 31
0.0
  0
LINE
  8
0
 62
     0
 10
309.039
 20
4.92647
 30
0.0
 11
308.802
 21
5.39365
 31
0.0
  0
LINE
  8
0
 62
     0
 10
308.802
 20
5.39365
 30
0.0
 11
308.431
 21
5.76573
 31
0.0
  0
LINE
  8
0
 62
     0
 10
308.431
 20
5.76573
 30
0.0
 11
307.964
 21
6.00273
 31
0.0
  0
LINE
  8
0
 62
     0
 10
307.964
 20
6.00273
 30
0.0
 11
307.446
 21
6.08404
 31
0.0
  0
LINE
  8
0
 62
     0
 10
307.446
 20
6.08404
 30
0.0
 11
306.929
 21
6.00273
 31
0.0
  0
LINE
  8
0
 62
     0
 10
53.6317
 20
24.8598
 30
0.0
 11
53.6317
 21
11.0105
 31
0.0
  0
LINE
  8
0
 62
     0
 10
53.6317
 20
11.0105
 30
0.0
 11
97.0827
 21
11.0105
 31
0.0
  0
LINE
  8
0
 62
     0
 10
97.0827
 20
11.0105
 30
0.0
 11
97.0827
 21
10.2595
 31
0.0
  0
LINE
  8
0
 62
     0
 10
97.0827
 20
10.2595
 30
0.0
 11
100.233
 21
10.2595
 31
0.0
  0
LINE
  8
0
 62
     0
 10
100.233
 20
10.2595
 30
0.0
 11
100.233
 21
11.2407
 31
0.0
  0
LINE
  8
0
 62
     0
 10
100.233
 20
11.2407
 30
0.0
 11
101.957
 21
11.2407
 31
0.0
  0
LINE
  8
0
 62
     0
 10
101.957
 20
11.2407
 30
0.0
 11
101.957
 21
15.7097
 31
0.0
  0
LINE
  8
0
 62
     0
 10
101.957
 20
15.7097
 30
0.0
 11
109.652
 21
15.7097
 31
0.0
  0
LINE
  8
0
 62
     0
 10
109.652
 20
15.7097
 30
0.0
 11
109.652
 21
11.2407
 31
0.0
  0
LINE
  8
0
 62
     0
 10
109.652
 20
11.2407
 30
0.0
 11
110.782
 21
11.2407
 31
0.0
  0
LINE
  8
0
 62
     0
 10
110.782
 20
11.2407
 30
0.0
 11
110.782
 21
11.0105
 31
0.0
  0
LINE
  8
0
 62
     0
 10
110.782
 20
11.0105
 30
0.0
 11
111.376
 21
11.0105
 31
0.0
  0
LINE
  8
0
 62
     0
 10
111.376
 20
11.0105
 30
0.0
 11
111.376
 21
10.2595
 31
0.0
  0
LINE
  8
0
 62
     0
 10
111.376
 20
10.2595
 30
0.0
 11
114.526
 21
10.2595
 31
0.0
  0
LINE
  8
0
 62
     0
 10
114.526
 20
10.2595
 30
0.0
 11
114.526
 21
11.0105
 31
0.0
  0
LINE
  8
0
 62
     0
 10
114.526
 20
11.0105
 30
0.0
 11
124.633
 21
11.0105
 31
0.0
  0
LINE
  8
0
 62
     0
 10
124.633
 20
11.0105
 30
0.0
 11
124.633
 21
15.7097
 31
0.0
  0
LINE
  8
0
 62
     0
 10
124.633
 20
15.7097
 30
0.0
 11
133.458
 21
15.7097
 31
0.0
  0
LINE
  8
0
 62
     0
 10
133.458
 20
15.7097
 30
0.0
 11
133.458
 21
11.2407
 31
0.0
  0
LINE
  8
0
 62
     0
 10
133.458
 20
11.2407
 30
0.0
 11
135.183
 21
11.2407
 31
0.0
  0
LINE
  8
0
 62
     0
 10
135.183
 20
11.2407
 30
0.0
 11
135.183
 21
10.2595
 31
0.0
  0
LINE
  8
0
 62
     0
 10
135.183
 20
10.2595
 30
0.0
 11
138.333
 21
10.2595
 31
0.0
  0
LINE
  8
0
 62
     0
 10
138.333
 20
10.2595
 30
0.0
 11
138.333
 21
11.2407
 31
0.0
  0
LINE
  8
0
 62
     0
 10
138.333
 20
11.2407
 30
0.0
 11
140.057
 21
11.2407
 31
0.0
  0
LINE
  8
0
 62
     0
 10
140.057
 20
11.2407
 30
0.0
 11
140.057
 21
15.7097
 31
0.0
  0
LINE
  8
0
 62
     0
 10
140.057
 20
15.7097
 30
0.0
 11
148.882
 21
15.7097
 31
0.0
  0
LINE
  8
0
 62
     0
 10
148.882
 20
15.7097
 30
0.0
 11
148.882
 21
11.0105
 31
0.0
  0
LINE
  8
0
 62
     0
 10
148.882
 20
11.0105
 30
0.0
 11
154.233
 21
11.0105
 31
0.0
  0
LINE
  8
0
 62
     0
 10
154.233
 20
11.0105
 30
0.0
 11
154.233
 21
10.2595
 31
0.0
  0
LINE
  8
0
 62
     0
 10
154.233
 20
10.2595
 30
0.0
 11
157.383
 21
10.2595
 31
0.0
  0
LINE
  8
0
 62
     0
 10
157.383
 20
10.2595
 30
0.0
 11
157.383
 21
11.0105
 31
0.0
  0
LINE
  8
0
 62
     0
 10
157.383
 20
11.0105
 30
0.0
 11
173.283
 21
11.0105
 31
0.0
  0
LINE
  8
0
 62
     0
 10
173.283
 20
11.0105
 30
0.0
 11
173.283
 21
10.2595
 31
0.0
  0
LINE
  8
0
 62
     0
 10
173.283
 20
10.2595
 30
0.0
 11
176.433
 21
10.2595
 31
0.0
  0
LINE
  8
0
 62
     0
 10
176.433
 20
10.2595
 30
0.0
 11
176.433
 21
11.0105
 31
0.0
  0
LINE
  8
0
 62
     0
 10
176.433
 20
11.0105
 30
0.0
 11
181.783
 21
11.0105
 31
0.0
  0
LINE
  8
0
 62
     0
 10
181.783
 20
11.0105
 30
0.0
 11
181.783
 21
15.7097
 31
0.0
  0
LINE
  8
0
 62
     0
 10
181.783
 20
15.7097
 30
0.0
 11
186.982
 21
15.7097
 31
0.0
  0
LINE
  8
0
 62
     0
 10
186.982
 20
15.7097
 30
0.0
 11
186.982
 21
11.0105
 31
0.0
  0
LINE
  8
0
 62
     0
 10
186.982
 20
11.0105
 30
0.0
 11
192.333
 21
11.0105
 31
0.0
  0
LINE
  8
0
 62
     0
 10
192.333
 20
11.0105
 30
0.0
 11
192.333
 21
10.2595
 31
0.0
  0
LINE
  8
0
 62
     0
 10
192.333
 20
10.2595
 30
0.0
 11
195.483
 21
10.2595
 31
0.0
  0
LINE
  8
0
 62
     0
 10
195.483
 20
10.2595
 30
0.0
 11
195.483
 21
11.0105
 31
0.0
  0
LINE
  8
0
 62
     0
 10
195.483
 20
11.0105
 30
0.0
 11
200.833
 21
11.0105
 31
0.0
  0
LINE
  8
0
 62
     0
 10
200.833
 20
11.0105
 30
0.0
 11
200.833
 21
15.7097
 31
0.0
  0
LINE
  8
0
 62
     0
 10
200.833
 20
15.7097
 30
0.0
 11
206.032
 21
15.7097
 31
0.0
  0
LINE
  8
0
 62
     0
 10
206.032
 20
15.7097
 30
0.0
 11
206.032
 21
11.0105
 31
0.0
  0
LINE
  8
0
 62
     0
 10
206.032
 20
11.0105
 30
0.0
 11
211.376
 21
11.0105
 31
0.0
  0
LINE
  8
0
 62
     0
 10
211.376
 20
11.0105
 30
0.0
 11
211.376
 21
10.2595
 31
0.0
  0
LINE
  8
0
 62
     0
 10
211.376
 20
10.2595
 30
0.0
 11
214.533
 21
10.2595
 31
0.0
  0
LINE
  8
0
 62
     0
 10
214.533
 20
10.2595
 30
0.0
 11
214.533
 21
11.0105
 31
0.0
  0
LINE
  8
0
 62
     0
 10
214.533
 20
11.0105
 30
0.0
 11
219.883
 21
11.0105
 31
0.0
  0
LINE
  8
0
 62
     0
 10
219.883
 20
11.0105
 30
0.0
 11
219.883
 21
24.8598
 31
0.0
  0
LINE
  8
0
 62
     0
 10
219.883
 20
24.8598
 30
0.0
 11
206.032
 21
24.8598
 31
0.0
  0
LINE
  8
0
 62
     0
 10
206.032
 20
24.8598
 30
0.0
 11
206.032
 21
20.1607
 31
0.0
  0
LINE
  8
0
 62
     0
 10
206.032
 20
20.1607
 30
0.0
 11
200.833
 21
20.1607
 31
0.0
  0
LINE
  8
0
 62
     0
 10
200.833
 20
20.1607
 30
0.0
 11
200.833
 21
24.8598
 31
0.0
  0
LINE
  8
0
 62
     0
 10
200.833
 20
24.8598
 30
0.0
 11
186.982
 21
24.8598
 31
0.0
  0
LINE
  8
0
 62
     0
 10
186.982
 20
24.8598
 30
0.0
 11
186.982
 21
20.1607
 31
0.0
  0
LINE
  8
0
 62
     0
 10
186.982
 20
20.1607
 30
0.0
 11
181.783
 21
20.1607
 31
0.0
  0
LINE
  8
0
 62
     0
 10
181.783
 20
20.1607
 30
0.0
 11
181.783
 21
24.8598
 31
0.0
  0
LINE
  8
0
 62
     0
 10
181.783
 20
24.8598
 30
0.0
 11
148.882
 21
24.8598
 31
0.0
  0
LINE
  8
0
 62
     0
 10
148.882
 20
24.8598
 30
0.0
 11
148.882
 21
20.1607
 31
0.0
  0
LINE
  8
0
 62
     0
 10
148.882
 20
20.1607
 30
0.0
 11
140.057
 21
20.1607
 31
0.0
  0
LINE
  8
0
 62
     0
 10
140.057
 20
20.1607
 30
0.0
 11
140.057
 21
23.3894
 31
0.0
  0
LINE
  8
0
 62
     0
 10
140.057
 20
23.3894
 30
0.0
 11
138.333
 21
23.3894
 31
0.0
  0
LINE
  8
0
 62
     0
 10
138.333
 20
23.3894
 30
0.0
 11
138.333
 21
24.31
 31
0.0
  0
LINE
  8
0
 62
     0
 10
138.333
 20
24.31
 30
0.0
 11
135.183
 21
24.31
 31
0.0
  0
LINE
  8
0
 62
     0
 10
135.183
 20
24.31
 30
0.0
 11
135.183
 21
23.3894
 31
0.0
  0
LINE
  8
0
 62
     0
 10
135.183
 20
23.3894
 30
0.0
 11
133.458
 21
23.3894
 31
0.0
  0
LINE
  8
0
 62
     0
 10
133.458
 20
23.3894
 30
0.0
 11
133.458
 21
20.1607
 31
0.0
  0
LINE
  8
0
 62
     0
 10
133.458
 20
20.1607
 30
0.0
 11
124.633
 21
20.1607
 31
0.0
  0
LINE
  8
0
 62
     0
 10
124.633
 20
20.1607
 30
0.0
 11
124.633
 21
24.8598
 31
0.0
  0
LINE
  8
0
 62
     0
 10
124.633
 20
24.8598
 30
0.0
 11
110.782
 21
24.8598
 31
0.0
  0
LINE
  8
0
 62
     0
 10
110.782
 20
24.8598
 30
0.0
 11
110.782
 21
23.3894
 31
0.0
  0
LINE
  8
0
 62
     0
 10
110.782
 20
23.3894
 30
0.0
 11
109.652
 21
23.3894
 31
0.0
  0
LINE
  8
0
 62
     0
 10
109.652
 20
23.3894
 30
0.0
 11
109.652
 21
20.1607
 31
0.0
  0
LINE
  8
0
 62
     0
 10
109.652
 20
20.1607
 30
0.0
 11
101.957
 21
20.1607
 31
0.0
  0
LINE
  8
0
 62
     0
 10
101.957
 20
20.1607
 30
0.0
 11
101.957
 21
23.3894
 31
0.0
  0
LINE
  8
0
 62
     0
 10
101.957
 20
23.3894
 30
0.0
 11
100.233
 21
23.3894
 31
0.0
  0
LINE
  8
0
 62
     0
 10
100.233
 20
23.3894
 30
0.0
 11
100.233
 21
24.31
 31
0.0
  0
LINE
  8
0
 62
     0
 10
100.233
 20
24.31
 30
0.0
 11
98.4388
 21
24.31
 31
0.0
  0
LINE
  8
0
 62
     0
 10
98.4388
 20
24.31
 30
0.0
 11
98.4388
 21
24.8598
 31
0.0
  0
LINE
  8
0
 62
     0
 10
98.4388
 20
24.8598
 30
0.0
 11
53.6317
 21
24.8598
 31
0.0
  0
LINE
  8
0
 62
     0
 10
263.182
 20
24.8598
 30
0.0
 11
277.033
 21
24.8598
 31
0.0
  0
LINE
  8
0
 62
     0
 10
277.033
 20
24.8598
 30
0.0
 11
277.033
 21
11.0105
 31
0.0
  0
LINE
  8
0
 62
     0
 10
277.033
 20
11.0105
 30
0.0
 11
263.182
 21
11.0105
 31
0.0
  0
LINE
  8
0
 62
     0
 10
263.182
 20
11.0105
 30
0.0
 11
263.182
 21
24.8598
 31
0.0
  0
LINE
  8
0
 62
     0
 10
244.132
 20
24.8598
 30
0.0
 11
257.983
 21
24.8598
 31
0.0
  0
LINE
  8
0
 62
     0
 10
257.983
 20
24.8598
 30
0.0
 11
257.983
 21
11.0105
 31
0.0
  0
LINE
  8
0
 62
     0
 10
257.983
 20
11.0105
 30
0.0
 11
244.132
 21
11.0105
 31
0.0
  0
LINE
  8
0
 62
     0
 10
244.132
 20
11.0105
 30
0.0
 11
244.132
 21
24.8598
 31
0.0
  0
LINE
  8
0
 62
     0
 10
225.082
 20
24.8598
 30
0.0
 11
238.933
 21
24.8598
 31
0.0
  0
LINE
  8
0
 62
     0
 10
238.933
 20
24.8598
 30
0.0
 11
238.933
 21
11.0105
 31
0.0
  0
LINE
  8
0
 62
     0
 10
238.933
 20
11.0105
 30
0.0
 11
225.082
 21
11.0105
 31
0.0
  0
LINE
  8
0
 62
     0
 10
225.082
 20
11.0105
 30
0.0
 11
225.082
 21
24.8598
 31
0.0
  0
LINE
  8
0
 62
     0
 10
34.5819
 20
24.8598
 30
0.0
 11
50.8138
 21
24.8598
 31
0.0
  0
LINE
  8
0
 62
     0
 10
50.8138
 20
24.8598
 30
0.0
 11
50.8138
 21
11.0105
 31
0.0
  0
LINE
  8
0
 62
     0
 10
50.8138
 20
11.0105
 30
0.0
 11
34.5819
 21
11.0105
 31
0.0
  0
LINE
  8
0
 62
     0
 10
34.5819
 20
11.0105
 30
0.0
 11
34.5819
 21
24.8598
 31
0.0
  0
LINE
  8
0
 62
     0
 10
22.677
 20
43.9099
 30
0.0
 11
22.677
 21
39.2105
 31
0.0
  0
LINE
  8
0
 62
     0
 10
22.677
 20
39.2105
 30
0.0
 11
21.0013
 21
39.2105
 31
0.0
  0
LINE
  8
0
 62
     0
 10
21.0013
 20
39.2105
 30
0.0
 11
21.0013
 21
42.4395
 31
0.0
  0
LINE
  8
0
 62
     0
 10
21.0013
 20
42.4395
 30
0.0
 11
19.276
 21
42.4395
 31
0.0
  0
LINE
  8
0
 62
     0
 10
19.276
 20
42.4395
 30
0.0
 11
19.276
 21
43.3599
 31
0.0
  0
LINE
  8
0
 62
     0
 10
19.276
 20
43.3599
 30
0.0
 11
16.1258
 21
43.3599
 31
0.0
  0
LINE
  8
0
 62
     0
 10
16.1258
 20
43.3599
 30
0.0
 11
16.1258
 21
42.4395
 31
0.0
  0
LINE
  8
0
 62
     0
 10
16.1258
 20
42.4395
 30
0.0
 11
14.4019
 21
42.4395
 31
0.0
  0
LINE
  8
0
 62
     0
 10
14.4019
 20
42.4395
 30
0.0
 11
14.4019
 21
39.2105
 31
0.0
  0
LINE
  8
0
 62
     0
 10
14.4019
 20
39.2105
 30
0.0
 11
13.5764
 21
39.2105
 31
0.0
  0
LINE
  8
0
 62
     0
 10
13.5764
 20
39.2105
 30
0.0
 11
13.5764
 21
36.5608
 31
0.0
  0
LINE
  8
0
 62
     0
 10
13.5764
 20
36.5608
 30
0.0
 11
14.4019
 21
36.5608
 31
0.0
  0
LINE
  8
0
 62
     0
 10
14.4019
 20
36.5608
 30
0.0
 11
14.4019
 21
30.2907
 31
0.0
  0
LINE
  8
0
 62
     0
 10
14.4019
 20
30.2907
 30
0.0
 11
16.1258
 21
30.2907
 31
0.0
  0
LINE
  8
0
 62
     0
 10
16.1258
 20
30.2907
 30
0.0
 11
16.1258
 21
29.3095
 31
0.0
  0
LINE
  8
0
 62
     0
 10
16.1258
 20
29.3095
 30
0.0
 11
19.276
 21
29.3095
 31
0.0
  0
LINE
  8
0
 62
     0
 10
19.276
 20
29.3095
 30
0.0
 11
19.276
 21
30.2907
 31
0.0
  0
LINE
  8
0
 62
     0
 10
19.276
 20
30.2907
 30
0.0
 11
21.0013
 21
30.2907
 31
0.0
  0
LINE
  8
0
 62
     0
 10
21.0013
 20
30.2907
 30
0.0
 11
21.0013
 21
34.7597
 31
0.0
  0
LINE
  8
0
 62
     0
 10
21.0013
 20
34.7597
 30
0.0
 11
22.677
 21
34.7597
 31
0.0
  0
LINE
  8
0
 62
     0
 10
22.677
 20
34.7597
 30
0.0
 11
22.677
 21
30.0605
 31
0.0
  0
LINE
  8
0
 62
     0
 10
22.677
 20
30.0605
 30
0.0
 11
36.5263
 21
30.0605
 31
0.0
  0
LINE
  8
0
 62
     0
 10
36.5263
 20
30.0605
 30
0.0
 11
36.5263
 21
34.7597
 31
0.0
  0
LINE
  8
0
 62
     0
 10
36.5263
 20
34.7597
 30
0.0
 11
38.202
 21
34.7597
 31
0.0
  0
LINE
  8
0
 62
     0
 10
38.202
 20
34.7597
 30
0.0
 11
38.202
 21
30.2907
 31
0.0
  0
LINE
  8
0
 62
     0
 10
38.202
 20
30.2907
 30
0.0
 11
39.926
 21
30.2907
 31
0.0
  0
LINE
  8
0
 62
     0
 10
39.926
 20
30.2907
 30
0.0
 11
39.926
 21
29.3095
 31
0.0
  0
LINE
  8
0
 62
     0
 10
39.926
 20
29.3095
 30
0.0
 11
43.0759
 21
29.3095
 31
0.0
  0
LINE
  8
0
 62
     0
 10
43.0759
 20
29.3095
 30
0.0
 11
43.0759
 21
30.2907
 31
0.0
  0
LINE
  8
0
 62
     0
 10
43.0759
 20
30.2907
 30
0.0
 11
44.8014
 21
30.2907
 31
0.0
  0
LINE
  8
0
 62
     0
 10
44.8014
 20
30.2907
 30
0.0
 11
44.8014
 21
36.5608
 31
0.0
  0
LINE
  8
0
 62
     0
 10
44.8014
 20
36.5608
 30
0.0
 11
45.6269
 21
36.5608
 31
0.0
  0
LINE
  8
0
 62
     0
 10
45.6269
 20
36.5608
 30
0.0
 11
45.6269
 21
39.2105
 31
0.0
  0
LINE
  8
0
 62
     0
 10
45.6269
 20
39.2105
 30
0.0
 11
44.8014
 21
39.2105
 31
0.0
  0
LINE
  8
0
 62
     0
 10
44.8014
 20
39.2105
 30
0.0
 11
44.8014
 21
42.4395
 31
0.0
  0
LINE
  8
0
 62
     0
 10
44.8014
 20
42.4395
 30
0.0
 11
43.0759
 21
42.4395
 31
0.0
  0
LINE
  8
0
 62
     0
 10
43.0759
 20
42.4395
 30
0.0
 11
43.0759
 21
43.3599
 31
0.0
  0
LINE
  8
0
 62
     0
 10
43.0759
 20
43.3599
 30
0.0
 11
39.926
 21
43.3599
 31
0.0
  0
LINE
  8
0
 62
     0
 10
39.926
 20
43.3599
 30
0.0
 11
39.926
 21
42.4395
 31
0.0
  0
LINE
  8
0
 62
     0
 10
39.926
 20
42.4395
 30
0.0
 11
38.202
 21
42.4395
 31
0.0
  0
LINE
  8
0
 62
     0
 10
38.202
 20
42.4395
 30
0.0
 11
38.202
 21
39.2105
 31
0.0
  0
LINE
  8
0
 62
     0
 10
38.202
 20
39.2105
 30
0.0
 11
36.5263
 21
39.2105
 31
0.0
  0
LINE
  8
0
 62
     0
 10
36.5263
 20
39.2105
 30
0.0
 11
36.5263
 21
43.9099
 31
0.0
  0
LINE
  8
0
 62
     0
 10
36.5263
 20
43.9099
 30
0.0
 11
22.677
 21
43.9099
 31
0.0
  0
LINE
  8
0
 62
     0
 10
286.996
 20
43.9099
 30
0.0
 11
300.845
 21
43.9099
 31
0.0
  0
LINE
  8
0
 62
     0
 10
300.845
 20
43.9099
 30
0.0
 11
300.845
 21
30.0605
 31
0.0
  0
LINE
  8
0
 62
     0
 10
300.845
 20
30.0605
 30
0.0
 11
286.996
 21
30.0605
 31
0.0
  0
LINE
  8
0
 62
     0
 10
286.996
 20
30.0605
 30
0.0
 11
286.996
 21
43.9099
 31
0.0
  0
LINE
  8
0
 62
     0
 10
265.563
 20
43.9099
 30
0.0
 11
279.414
 21
43.9099
 31
0.0
  0
LINE
  8
0
 62
     0
 10
279.414
 20
43.9099
 30
0.0
 11
279.414
 21
30.0605
 31
0.0
  0
LINE
  8
0
 62
     0
 10
279.414
 20
30.0605
 30
0.0
 11
265.563
 21
30.0605
 31
0.0
  0
LINE
  8
0
 62
     0
 10
265.563
 20
30.0605
 30
0.0
 11
265.563
 21
43.9099
 31
0.0
  0
LINE
  8
0
 62
     0
 10
244.132
 20
43.9099
 30
0.0
 11
257.983
 21
43.9099
 31
0.0
  0
LINE
  8
0
 62
     0
 10
257.983
 20
43.9099
 30
0.0
 11
257.983
 21
30.0605
 31
0.0
  0
LINE
  8
0
 62
     0
 10
257.983
 20
30.0605
 30
0.0
 11
244.132
 21
30.0605
 31
0.0
  0
LINE
  8
0
 62
     0
 10
244.132
 20
30.0605
 30
0.0
 11
244.132
 21
43.9099
 31
0.0
  0
LINE
  8
0
 62
     0
 10
225.082
 20
43.9099
 30
0.0
 11
238.933
 21
43.9099
 31
0.0
  0
LINE
  8
0
 62
     0
 10
238.933
 20
43.9099
 30
0.0
 11
238.933
 21
30.0605
 31
0.0
  0
LINE
  8
0
 62
     0
 10
238.933
 20
30.0605
 30
0.0
 11
225.082
 21
30.0605
 31
0.0
  0
LINE
  8
0
 62
     0
 10
225.082
 20
30.0605
 30
0.0
 11
225.082
 21
43.9099
 31
0.0
  0
LINE
  8
0
 62
     0
 10
206.032
 20
43.9099
 30
0.0
 11
219.883
 21
43.9099
 31
0.0
  0
LINE
  8
0
 62
     0
 10
219.883
 20
43.9099
 30
0.0
 11
219.883
 21
30.0605
 31
0.0
  0
LINE
  8
0
 62
     0
 10
219.883
 20
30.0605
 30
0.0
 11
206.032
 21
30.0605
 31
0.0
  0
LINE
  8
0
 62
     0
 10
206.032
 20
30.0605
 30
0.0
 11
206.032
 21
43.9099
 31
0.0
  0
LINE
  8
0
 62
     0
 10
186.982
 20
43.9099
 30
0.0
 11
200.833
 21
43.9099
 31
0.0
  0
LINE
  8
0
 62
     0
 10
200.833
 20
43.9099
 30
0.0
 11
200.833
 21
30.0605
 31
0.0
  0
LINE
  8
0
 62
     0
 10
200.833
 20
30.0605
 30
0.0
 11
186.982
 21
30.0605
 31
0.0
  0
LINE
  8
0
 62
     0
 10
186.982
 20
30.0605
 30
0.0
 11
186.982
 21
43.9099
 31
0.0
  0
LINE
  8
0
 62
     0
 10
167.932
 20
43.9099
 30
0.0
 11
181.783
 21
43.9099
 31
0.0
  0
LINE
  8
0
 62
     0
 10
181.783
 20
43.9099
 30
0.0
 11
181.783
 21
30.0605
 31
0.0
  0
LINE
  8
0
 62
     0
 10
181.783
 20
30.0605
 30
0.0
 11
167.932
 21
30.0605
 31
0.0
  0
LINE
  8
0
 62
     0
 10
167.932
 20
30.0605
 30
0.0
 11
167.932
 21
43.9099
 31
0.0
  0
LINE
  8
0
 62
     0
 10
148.882
 20
43.9099
 30
0.0
 11
162.733
 21
43.9099
 31
0.0
  0
LINE
  8
0
 62
     0
 10
162.733
 20
43.9099
 30
0.0
 11
162.733
 21
30.0605
 31
0.0
  0
LINE
  8
0
 62
     0
 10
162.733
 20
30.0605
 30
0.0
 11
148.882
 21
30.0605
 31
0.0
  0
LINE
  8
0
 62
     0
 10
148.882
 20
30.0605
 30
0.0
 11
148.882
 21
43.9099
 31
0.0
  0
LINE
  8
0
 62
     0
 10
129.832
 20
43.9099
 30
0.0
 11
143.683
 21
43.9099
 31
0.0
  0
LINE
  8
0
 62
     0
 10
143.683
 20
43.9099
 30
0.0
 11
143.683
 21
30.0605
 31
0.0
  0
LINE
  8
0
 62
     0
 10
143.683
 20
30.0605
 30
0.0
 11
129.832
 21
30.0605
 31
0.0
  0
LINE
  8
0
 62
     0
 10
129.832
 20
30.0605
 30
0.0
 11
129.832
 21
43.9099
 31
0.0
  0
LINE
  8
0
 62
     0
 10
110.782
 20
43.9099
 30
0.0
 11
124.633
 21
43.9099
 31
0.0
  0
LINE
  8
0
 62
     0
 10
124.633
 20
43.9099
 30
0.0
 11
124.633
 21
30.0605
 31
0.0
  0
LINE
  8
0
 62
     0
 10
124.633
 20
30.0605
 30
0.0
 11
110.782
 21
30.0605
 31
0.0
  0
LINE
  8
0
 62
     0
 10
110.782
 20
30.0605
 30
0.0
 11
110.782
 21
43.9099
 31
0.0
  0
LINE
  8
0
 62
     0
 10
91.7318
 20
43.9099
 30
0.0
 11
105.583
 21
43.9099
 31
0.0
  0
LINE
  8
0
 62
     0
 10
105.583
 20
43.9099
 30
0.0
 11
105.583
 21
30.0605
 31
0.0
  0
LINE
  8
0
 62
     0
 10
105.583
 20
30.0605
 30
0.0
 11
91.7318
 21
30.0605
 31
0.0
  0
LINE
  8
0
 62
     0
 10
91.7318
 20
30.0605
 30
0.0
 11
91.7318
 21
43.9099
 31
0.0
  0
LINE
  8
0
 62
     0
 10
72.6817
 20
43.9099
 30
0.0
 11
86.5325
 21
43.9099
 31
0.0
  0
LINE
  8
0
 62
     0
 10
86.5325
 20
43.9099
 30
0.0
 11
86.5325
 21
30.0605
 31
0.0
  0
LINE
  8
0
 62
     0
 10
86.5325
 20
30.0605
 30
0.0
 11
72.6817
 21
30.0605
 31
0.0
  0
LINE
  8
0
 62
     0
 10
72.6817
 20
30.0605
 30
0.0
 11
72.6817
 21
43.9099
 31
0.0
  0
LINE
  8
0
 62
     0
 10
53.6317
 20
43.9099
 30
0.0
 11
67.4825
 21
43.9099
 31
0.0
  0
LINE
  8
0
 62
     0
 10
67.4825
 20
43.9099
 30
0.0
 11
67.4825
 21
30.0605
 31
0.0
  0
LINE
  8
0
 62
     0
 10
67.4825
 20
30.0605
 30
0.0
 11
53.6317
 21
30.0605
 31
0.0
  0
LINE
  8
0
 62
     0
 10
53.6317
 20
30.0605
 30
0.0
 11
53.6317
 21
43.9099
 31
0.0
  0
LINE
  8
0
 62
     0
 10
270.327
 20
62.9599
 30
0.0
 11
284.176
 21
62.9599
 31
0.0
  0
LINE
  8
0
 62
     0
 10
284.176
 20
62.9599
 30
0.0
 11
284.176
 21
49.1105
 31
0.0
  0
LINE
  8
0
 62
     0
 10
284.176
 20
49.1105
 30
0.0
 11
270.327
 21
49.1105
 31
0.0
  0
LINE
  8
0
 62
     0
 10
270.327
 20
49.1105
 30
0.0
 11
270.327
 21
62.9599
 31
0.0
  0
LINE
  8
0
 62
     0
 10
244.132
 20
62.9599
 30
0.0
 11
257.983
 21
62.9599
 31
0.0
  0
LINE
  8
0
 62
     0
 10
257.983
 20
62.9599
 30
0.0
 11
257.983
 21
49.1105
 31
0.0
  0
LINE
  8
0
 62
     0
 10
257.983
 20
49.1105
 30
0.0
 11
244.132
 21
49.1105
 31
0.0
  0
LINE
  8
0
 62
     0
 10
244.132
 20
49.1105
 30
0.0
 11
244.132
 21
62.9599
 31
0.0
  0
LINE
  8
0
 62
     0
 10
225.082
 20
62.9599
 30
0.0
 11
238.933
 21
62.9599
 31
0.0
  0
LINE
  8
0
 62
     0
 10
238.933
 20
62.9599
 30
0.0
 11
238.933
 21
49.1105
 31
0.0
  0
LINE
  8
0
 62
     0
 10
238.933
 20
49.1105
 30
0.0
 11
225.082
 21
49.1105
 31
0.0
  0
LINE
  8
0
 62
     0
 10
225.082
 20
49.1105
 30
0.0
 11
225.082
 21
62.9599
 31
0.0
  0
LINE
  8
0
 62
     0
 10
206.032
 20
62.9599
 30
0.0
 11
219.883
 21
62.9599
 31
0.0
  0
LINE
  8
0
 62
     0
 10
219.883
 20
62.9599
 30
0.0
 11
219.883
 21
49.1105
 31
0.0
  0
LINE
  8
0
 62
     0
 10
219.883
 20
49.1105
 30
0.0
 11
206.032
 21
49.1105
 31
0.0
  0
LINE
  8
0
 62
     0
 10
206.032
 20
49.1105
 30
0.0
 11
206.032
 21
62.9599
 31
0.0
  0
LINE
  8
0
 62
     0
 10
186.982
 20
62.9599
 30
0.0
 11
200.833
 21
62.9599
 31
0.0
  0
LINE
  8
0
 62
     0
 10
200.833
 20
62.9599
 30
0.0
 11
200.833
 21
49.1105
 31
0.0
  0
LINE
  8
0
 62
     0
 10
200.833
 20
49.1105
 30
0.0
 11
186.982
 21
49.1105
 31
0.0
  0
LINE
  8
0
 62
     0
 10
186.982
 20
49.1105
 30
0.0
 11
186.982
 21
62.9599
 31
0.0
  0
LINE
  8
0
 62
     0
 10
167.932
 20
62.9599
 30
0.0
 11
181.783
 21
62.9599
 31
0.0
  0
LINE
  8
0
 62
     0
 10
181.783
 20
62.9599
 30
0.0
 11
181.783
 21
49.1105
 31
0.0
  0
LINE
  8
0
 62
     0
 10
181.783
 20
49.1105
 30
0.0
 11
167.932
 21
49.1105
 31
0.0
  0
LINE
  8
0
 62
     0
 10
167.932
 20
49.1105
 30
0.0
 11
167.932
 21
62.9599
 31
0.0
  0
LINE
  8
0
 62
     0
 10
148.882
 20
62.9599
 30
0.0
 11
162.733
 21
62.9599
 31
0.0
  0
LINE
  8
0
 62
     0
 10
162.733
 20
62.9599
 30
0.0
 11
162.733
 21
49.1105
 31
0.0
  0
LINE
  8
0
 62
     0
 10
162.733
 20
49.1105
 30
0.0
 11
148.882
 21
49.1105
 31
0.0
  0
LINE
  8
0
 62
     0
 10
148.882
 20
49.1105
 30
0.0
 11
148.882
 21
62.9599
 31
0.0
  0
LINE
  8
0
 62
     0
 10
129.832
 20
62.9599
 30
0.0
 11
143.683
 21
62.9599
 31
0.0
  0
LINE
  8
0
 62
     0
 10
143.683
 20
62.9599
 30
0.0
 11
143.683
 21
49.1105
 31
0.0
  0
LINE
  8
0
 62
     0
 10
143.683
 20
49.1105
 30
0.0
 11
129.832
 21
49.1105
 31
0.0
  0
LINE
  8
0
 62
     0
 10
129.832
 20
49.1105
 30
0.0
 11
129.832
 21
62.9599
 31
0.0
  0
LINE
  8
0
 62
     0
 10
110.782
 20
62.9599
 30
0.0
 11
124.633
 21
62.9599
 31
0.0
  0
LINE
  8
0
 62
     0
 10
124.633
 20
62.9599
 30
0.0
 11
124.633
 21
49.1105
 31
0.0
  0
LINE
  8
0
 62
     0
 10
124.633
 20
49.1105
 30
0.0
 11
110.782
 21
49.1105
 31
0.0
  0
LINE
  8
0
 62
     0
 10
110.782
 20
49.1105
 30
0.0
 11
110.782
 21
62.9599
 31
0.0
  0
LINE
  8
0
 62
     0
 10
91.7318
 20
62.9599
 30
0.0
 11
105.583
 21
62.9599
 31
0.0
  0
LINE
  8
0
 62
     0
 10
105.583
 20
62.9599
 30
0.0
 11
105.583
 21
49.1105
 31
0.0
  0
LINE
  8
0
 62
     0
 10
105.583
 20
49.1105
 30
0.0
 11
91.7318
 21
49.1105
 31
0.0
  0
LINE
  8
0
 62
     0
 10
91.7318
 20
49.1105
 30
0.0
 11
91.7318
 21
62.9599
 31
0.0
  0
LINE
  8
0
 62
     0
 10
72.6817
 20
62.9599
 30
0.0
 11
86.5325
 21
62.9599
 31
0.0
  0
LINE
  8
0
 62
     0
 10
86.5325
 20
62.9599
 30
0.0
 11
86.5325
 21
49.1105
 31
0.0
  0
LINE
  8
0
 62
     0
 10
86.5325
 20
49.1105
 30
0.0
 11
72.6817
 21
49.1105
 31
0.0
  0
LINE
  8
0
 62
     0
 10
72.6817
 20
49.1105
 30
0.0
 11
72.6817
 21
62.9599
 31
0.0
  0
LINE
  8
0
 62
     0
 10
53.6317
 20
62.9599
 30
0.0
 11
67.4825
 21
62.9599
 31
0.0
  0
LINE
  8
0
 62
     0
 10
67.4825
 20
62.9599
 30
0.0
 11
67.4825
 21
49.1105
 31
0.0
  0
LINE
  8
0
 62
     0
 10
67.4825
 20
49.1105
 30
0.0
 11
53.6317
 21
49.1105
 31
0.0
  0
LINE
  8
0
 62
     0
 10
53.6317
 20
49.1105
 30
0.0
 11
53.6317
 21
62.9599
 31
0.0
  0
LINE
  8
0
 62
     0
 10
22.677
 20
62.9599
 30
0.0
 11
41.2888
 21
62.9599
 31
0.0
  0
LINE
  8
0
 62
     0
 10
41.2888
 20
62.9599
 30
0.0
 11
41.2888
 21
49.1105
 31
0.0
  0
LINE
  8
0
 62
     0
 10
41.2888
 20
49.1105
 30
0.0
 11
22.677
 21
49.1105
 31
0.0
  0
LINE
  8
0
 62
     0
 10
22.677
 20
49.1105
 30
0.0
 11
22.677
 21
62.9599
 31
0.0
  0
LINE
  8
0
 62
     0
 10
267.946
 20
82.0099
 30
0.0
 11
281.795
 21
82.0099
 31
0.0
  0
LINE
  8
0
 62
     0
 10
281.795
 20
82.0099
 30
0.0
 11
281.795
 21
68.1605
 31
0.0
  0
LINE
  8
0
 62
     0
 10
281.795
 20
68.1605
 30
0.0
 11
267.946
 21
68.1605
 31
0.0
  0
LINE
  8
0
 62
     0
 10
267.946
 20
68.1605
 30
0.0
 11
267.946
 21
82.0099
 31
0.0
  0
LINE
  8
0
 62
     0
 10
244.132
 20
82.0099
 30
0.0
 11
257.983
 21
82.0099
 31
0.0
  0
LINE
  8
0
 62
     0
 10
257.983
 20
82.0099
 30
0.0
 11
257.983
 21
68.1605
 31
0.0
  0
LINE
  8
0
 62
     0
 10
257.983
 20
68.1605
 30
0.0
 11
244.132
 21
68.1605
 31
0.0
  0
LINE
  8
0
 62
     0
 10
244.132
 20
68.1605
 30
0.0
 11
244.132
 21
82.0099
 31
0.0
  0
LINE
  8
0
 62
     0
 10
225.082
 20
82.0099
 30
0.0
 11
238.933
 21
82.0099
 31
0.0
  0
LINE
  8
0
 62
     0
 10
238.933
 20
82.0099
 30
0.0
 11
238.933
 21
68.1605
 31
0.0
  0
LINE
  8
0
 62
     0
 10
238.933
 20
68.1605
 30
0.0
 11
225.082
 21
68.1605
 31
0.0
  0
LINE
  8
0
 62
     0
 10
225.082
 20
68.1605
 30
0.0
 11
225.082
 21
82.0099
 31
0.0
  0
LINE
  8
0
 62
     0
 10
206.032
 20
82.0099
 30
0.0
 11
219.883
 21
82.0099
 31
0.0
  0
LINE
  8
0
 62
     0
 10
219.883
 20
82.0099
 30
0.0
 11
219.883
 21
68.1605
 31
0.0
  0
LINE
  8
0
 62
     0
 10
219.883
 20
68.1605
 30
0.0
 11
206.032
 21
68.1605
 31
0.0
  0
LINE
  8
0
 62
     0
 10
206.032
 20
68.1605
 30
0.0
 11
206.032
 21
82.0099
 31
0.0
  0
LINE
  8
0
 62
     0
 10
186.982
 20
82.0099
 30
0.0
 11
200.833
 21
82.0099
 31
0.0
  0
LINE
  8
0
 62
     0
 10
200.833
 20
82.0099
 30
0.0
 11
200.833
 21
68.1605
 31
0.0
  0
LINE
  8
0
 62
     0
 10
200.833
 20
68.1605
 30
0.0
 11
186.982
 21
68.1605
 31
0.0
  0
LINE
  8
0
 62
     0
 10
186.982
 20
68.1605
 30
0.0
 11
186.982
 21
82.0099
 31
0.0
  0
LINE
  8
0
 62
     0
 10
167.932
 20
82.0099
 30
0.0
 11
181.783
 21
82.0099
 31
0.0
  0
LINE
  8
0
 62
     0
 10
181.783
 20
82.0099
 30
0.0
 11
181.783
 21
68.1605
 31
0.0
  0
LINE
  8
0
 62
     0
 10
181.783
 20
68.1605
 30
0.0
 11
167.932
 21
68.1605
 31
0.0
  0
LINE
  8
0
 62
     0
 10
167.932
 20
68.1605
 30
0.0
 11
167.932
 21
82.0099
 31
0.0
  0
LINE
  8
0
 62
     0
 10
148.882
 20
82.0099
 30
0.0
 11
162.733
 21
82.0099
 31
0.0
  0
LINE
  8
0
 62
     0
 10
162.733
 20
82.0099
 30
0.0
 11
162.733
 21
68.1605
 31
0.0
  0
LINE
  8
0
 62
     0
 10
162.733
 20
68.1605
 30
0.0
 11
148.882
 21
68.1605
 31
0.0
  0
LINE
  8
0
 62
     0
 10
148.882
 20
68.1605
 30
0.0
 11
148.882
 21
82.0099
 31
0.0
  0
LINE
  8
0
 62
     0
 10
129.832
 20
82.0099
 30
0.0
 11
143.683
 21
82.0099
 31
0.0
  0
LINE
  8
0
 62
     0
 10
143.683
 20
82.0099
 30
0.0
 11
143.683
 21
68.1605
 31
0.0
  0
LINE
  8
0
 62
     0
 10
143.683
 20
68.1605
 30
0.0
 11
129.832
 21
68.1605
 31
0.0
  0
LINE
  8
0
 62
     0
 10
129.832
 20
68.1605
 30
0.0
 11
129.832
 21
82.0099
 31
0.0
  0
LINE
  8
0
 62
     0
 10
110.782
 20
82.0099
 30
0.0
 11
124.633
 21
82.0099
 31
0.0
  0
LINE
  8
0
 62
     0
 10
124.633
 20
82.0099
 30
0.0
 11
124.633
 21
68.1605
 31
0.0
  0
LINE
  8
0
 62
     0
 10
124.633
 20
68.1605
 30
0.0
 11
110.782
 21
68.1605
 31
0.0
  0
LINE
  8
0
 62
     0
 10
110.782
 20
68.1605
 30
0.0
 11
110.782
 21
82.0099
 31
0.0
  0
LINE
  8
0
 62
     0
 10
91.7318
 20
82.0099
 30
0.0
 11
105.583
 21
82.0099
 31
0.0
  0
LINE
  8
0
 62
     0
 10
105.583
 20
82.0099
 30
0.0
 11
105.583
 21
68.1605
 31
0.0
  0
LINE
  8
0
 62
     0
 10
105.583
 20
68.1605
 30
0.0
 11
91.7318
 21
68.1605
 31
0.0
  0
LINE
  8
0
 62
     0
 10
91.7318
 20
68.1605
 30
0.0
 11
91.7318
 21
82.0099
 31
0.0
  0
LINE
  8
0
 62
     0
 10
72.6817
 20
82.0099
 30
0.0
 11
86.5325
 21
82.0099
 31
0.0
  0
LINE
  8
0
 62
     0
 10
86.5325
 20
82.0099
 30
0.0
 11
86.5325
 21
68.1605
 31
0.0
  0
LINE
  8
0
 62
     0
 10
86.5325
 20
68.1605
 30
0.0
 11
72.6817
 21
68.1605
 31
0.0
  0
LINE
  8
0
 62
     0
 10
72.6817
 20
68.1605
 30
0.0
 11
72.6817
 21
82.0099
 31
0.0
  0
LINE
  8
0
 62
     0
 10
53.6317
 20
82.0099
 30
0.0
 11
67.4825
 21
82.0099
 31
0.0
  0
LINE
  8
0
 62
     0
 10
67.4825
 20
82.0099
 30
0.0
 11
67.4825
 21
68.1605
 31
0.0
  0
LINE
  8
0
 62
     0
 10
67.4825
 20
68.1605
 30
0.0
 11
53.6317
 21
68.1605
 31
0.0
  0
LINE
  8
0
 62
     0
 10
53.6317
 20
68.1605
 30
0.0
 11
53.6317
 21
82.0099
 31
0.0
  0
LINE
  8
0
 62
     0
 10
29.8208
 20
82.0099
 30
0.0
 11
43.67
 21
82.0099
 31
0.0
  0
LINE
  8
0
 62
     0
 10
43.67
 20
82.0099
 30
0.0
 11
43.67
 21
68.1605
 31
0.0
  0
LINE
  8
0
 62
     0
 10
43.67
 20
68.1605
 30
0.0
 11
29.8208
 21
68.1605
 31
0.0
  0
LINE
  8
0
 62
     0
 10
29.8208
 20
68.1605
 30
0.0
 11
29.8208
 21
82.0099
 31
0.0
  0
LINE
  8
0
 62
     0
 10
3.65181
 20
90.2035
 30
0.0
 11
3.18602
 21
89.9664
 31
0.0
  0
LINE
  8
0
 62
     0
 10
3.18602
 20
89.9664
 30
0.0
 11
2.81395
 21
89.5946
 31
0.0
  0
LINE
  8
0
 62
     0
 10
2.81395
 20
89.5946
 30
0.0
 11
2.57693
 21
89.1286
 31
0.0
  0
LINE
  8
0
 62
     0
 10
2.57693
 20
89.1286
 30
0.0
 11
2.49425
 21
88.6107
 31
0.0
  0
LINE
  8
0
 62
     0
 10
2.49425
 20
88.6107
 30
0.0
 11
2.57693
 21
88.0925
 31
0.0
  0
LINE
  8
0
 62
     0
 10
2.57693
 20
88.0925
 30
0.0
 11
2.81395
 21
87.6268
 31
0.0
  0
LINE
  8
0
 62
     0
 10
2.81395
 20
87.6268
 30
0.0
 11
3.18602
 21
87.2546
 31
0.0
  0
LINE
  8
0
 62
     0
 10
3.18602
 20
87.2546
 30
0.0
 11
3.65181
 21
87.0176
 31
0.0
  0
LINE
  8
0
 62
     0
 10
3.65181
 20
87.0176
 30
0.0
 11
4.16994
 21
86.935
 31
0.0
  0
LINE
  8
0
 62
     0
 10
4.16994
 20
86.935
 30
0.0
 11
4.6881
 21
87.0176
 31
0.0
  0
LINE
  8
0
 62
     0
 10
4.6881
 20
87.0176
 30
0.0
 11
5.15387
 21
87.2546
 31
0.0
  0
LINE
  8
0
 62
     0
 10
5.15387
 20
87.2546
 30
0.0
 11
5.52595
 21
87.6268
 31
0.0
  0
LINE
  8
0
 62
     0
 10
5.52595
 20
87.6268
 30
0.0
 11
5.76294
 21
88.0925
 31
0.0
  0
LINE
  8
0
 62
     0
 10
5.76294
 20
88.0925
 30
0.0
 11
5.84426
 21
88.6107
 31
0.0
  0
LINE
  8
0
 62
     0
 10
5.84426
 20
88.6107
 30
0.0
 11
5.76294
 21
89.1286
 31
0.0
  0
LINE
  8
0
 62
     0
 10
5.76294
 20
89.1286
 30
0.0
 11
5.52595
 21
89.5946
 31
0.0
  0
LINE
  8
0
 62
     0
 10
5.52595
 20
89.5946
 30
0.0
 11
5.15387
 21
89.9664
 31
0.0
  0
LINE
  8
0
 62
     0
 10
5.15387
 20
89.9664
 30
0.0
 11
4.6881
 21
90.2035
 31
0.0
  0
LINE
  8
0
 62
     0
 10
4.6881
 20
90.2035
 30
0.0
 11
4.16994
 21
90.285
 31
0.0
  0
LINE
  8
0
 62
     0
 10
4.16994
 20
90.285
 30
0.0
 11
3.65181
 21
90.2035
 31
0.0
  0
LINE
  8
0
 62
     0
 10
306.929
 20
90.2035
 30
0.0
 11
306.462
 21
89.9664
 31
0.0
  0
LINE
  8
0
 62
     0
 10
306.462
 20
89.9664
 30
0.0
 11
306.09
 21
89.5946
 31
0.0
  0
LINE
  8
0
 62
     0
 10
306.09
 20
89.5946
 30
0.0
 11
305.853
 21
89.1286
 31
0.0
  0
LINE
  8
0
 62
     0
 10
305.853
 20
89.1286
 30
0.0
 11
305.772
 21
88.6107
 31
0.0
  0
LINE
  8
0
 62
     0
 10
305.772
 20
88.6107
 30
0.0
 11
305.853
 21
88.0925
 31
0.0
  0
LINE
  8
0
 62
     0
 10
305.853
 20
88.0925
 30
0.0
 11
306.09
 21
87.6268
 31
0.0
  0
LINE
  8
0
 62
     0
 10
306.09
 20
87.6268
 30
0.0
 11
306.462
 21
87.2546
 31
0.0
  0
LINE
  8
0
 62
     0
 10
306.462
 20
87.2546
 30
0.0
 11
306.929
 21
87.0176
 31
0.0
  0
LINE
  8
0
 62
     0
 10
306.929
 20
87.0176
 30
0.0
 11
307.446
 21
86.935
 31
0.0
  0
LINE
  8
0
 62
     0
 10
307.446
 20
86.935
 30
0.0
 11
307.964
 21
87.0176
 31
0.0
  0
LINE
  8
0
 62
     0
 10
307.964
 20
87.0176
 30
0.0
 11
308.431
 21
87.2546
 31
0.0
  0
LINE
  8
0
 62
     0
 10
308.431
 20
87.2546
 30
0.0
 11
308.802
 21
87.6268
 31
0.0
  0
LINE
  8
0
 62
     0
 10
308.802
 20
87.6268
 30
0.0
 11
309.039
 21
88.0925
 31
0.0
  0
LINE
  8
0
 62
     0
 10
309.039
 20
88.0925
 30
0.0
 11
309.122
 21
88.6107
 31
0.0
  0
LINE
  8
0
 62
     0
 10
309.122
 20
88.6107
 30
0.0
 11
309.039
 21
89.1286
 31
0.0
  0
LINE
  8
0
 62
     0
 10
309.039
 20
89.1286
 30
0.0
 11
308.802
 21
89.5946
 31
0.0
  0
LINE
  8
0
 62
     0
 10
308.802
 20
89.5946
 30
0.0
 11
308.431
 21
89.9664
 31
0.0
  0
LINE
  8
0
 62
     0
 10
308.431
 20
89.9664
 30
0.0
 11
307.964
 21
90.2035
 31
0.0
  0
LINE
  8
0
 62
     0
 10
307.964
 20
90.2035
 30
0.0
 11
307.446
 21
90.2864
 31
0.0
  0
LINE
  8
0
 62
     0
 10
307.446
 20
90.2864
 30
0.0
 11
306.929
 21
90.2035
 31
0.0
  0
LINE
  8
0
 62
     0
 10
231.109
 20
90.2035
 30
0.0
 11
230.642
 21
89.9664
 31
0.0
  0
LINE
  8
0
 62
     0
 10
230.642
 20
89.9664
 30
0.0
 11
230.271
 21
89.5946
 31
0.0
  0
LINE
  8
0
 62
     0
 10
230.271
 20
89.5946
 30
0.0
 11
230.033
 21
89.1286
 31
0.0
  0
LINE
  8
0
 62
     0
 10
230.033
 20
89.1286
 30
0.0
 11
229.952
 21
88.6107
 31
0.0
  0
LINE
  8
0
 62
     0
 10
229.952
 20
88.6107
 30
0.0
 11
230.033
 21
88.0925
 31
0.0
  0
LINE
  8
0
 62
     0
 10
230.033
 20
88.0925
 30
0.0
 11
230.271
 21
87.6268
 31
0.0
  0
LINE
  8
0
 62
     0
 10
230.271
 20
87.6268
 30
0.0
 11
230.642
 21
87.2546
 31
0.0
  0
LINE
  8
0
 62
     0
 10
230.642
 20
87.2546
 30
0.0
 11
231.109
 21
87.0176
 31
0.0
  0
LINE
  8
0
 62
     0
 10
231.109
 20
87.0176
 30
0.0
 11
231.628
 21
86.935
 31
0.0
  0
LINE
  8
0
 62
     0
 10
231.628
 20
86.935
 30
0.0
 11
232.144
 21
87.0176
 31
0.0
  0
LINE
  8
0
 62
     0
 10
232.144
 20
87.0176
 30
0.0
 11
232.611
 21
87.2546
 31
0.0
  0
LINE
  8
0
 62
     0
 10
232.611
 20
87.2546
 30
0.0
 11
232.982
 21
87.6268
 31
0.0
  0
LINE
  8
0
 62
     0
 10
232.982
 20
87.6268
 30
0.0
 11
233.221
 21
88.0925
 31
0.0
  0
LINE
  8
0
 62
     0
 10
233.221
 20
88.0925
 30
0.0
 11
233.302
 21
88.6107
 31
0.0
  0
LINE
  8
0
 62
     0
 10
233.302
 20
88.6107
 30
0.0
 11
233.221
 21
89.1286
 31
0.0
  0
LINE
  8
0
 62
     0
 10
233.221
 20
89.1286
 30
0.0
 11
232.982
 21
89.5946
 31
0.0
  0
LINE
  8
0
 62
     0
 10
232.982
 20
89.5946
 30
0.0
 11
232.611
 21
89.9664
 31
0.0
  0
LINE
  8
0
 62
     0
 10
232.611
 20
89.9664
 30
0.0
 11
232.144
 21
90.2035
 31
0.0
  0
LINE
  8
0
 62
     0
 10
232.144
 20
90.2035
 30
0.0
 11
231.628
 21
90.2864
 31
0.0
  0
LINE
  8
0
 62
     0
 10
231.628
 20
90.2864
 30
0.0
 11
231.109
 21
90.2035
 31
0.0
  0
LINE
  8
0
 62
     0
 10
155.291
 20
90.2035
 30
0.0
 11
154.824
 21
89.9664
 31
0.0
  0
LINE
  8
0
 62
     0
 10
154.824
 20
89.9664
 30
0.0
 11
154.452
 21
89.5946
 31
0.0
  0
LINE
  8
0
 62
     0
 10
154.452
 20
89.5946
 30
0.0
 11
154.215
 21
89.1286
 31
0.0
  0
LINE
  8
0
 62
     0
 10
154.215
 20
89.1286
 30
0.0
 11
154.132
 21
88.6107
 31
0.0
  0
LINE
  8
0
 62
     0
 10
154.132
 20
88.6107
 30
0.0
 11
154.215
 21
88.0925
 31
0.0
  0
LINE
  8
0
 62
     0
 10
154.215
 20
88.0925
 30
0.0
 11
154.452
 21
87.6268
 31
0.0
  0
LINE
  8
0
 62
     0
 10
154.452
 20
87.6268
 30
0.0
 11
154.824
 21
87.2546
 31
0.0
  0
LINE
  8
0
 62
     0
 10
154.824
 20
87.2546
 30
0.0
 11
155.291
 21
87.0176
 31
0.0
  0
LINE
  8
0
 62
     0
 10
155.291
 20
87.0176
 30
0.0
 11
155.808
 21
86.935
 31
0.0
  0
LINE
  8
0
 62
     0
 10
155.808
 20
86.935
 30
0.0
 11
156.326
 21
87.0176
 31
0.0
  0
LINE
  8
0
 62
     0
 10
156.326
 20
87.0176
 30
0.0
 11
156.792
 21
87.2546
 31
0.0
  0
LINE
  8
0
 62
     0
 10
156.792
 20
87.2546
 30
0.0
 11
157.164
 21
87.6268
 31
0.0
  0
LINE
  8
0
 62
     0
 10
157.164
 20
87.6268
 30
0.0
 11
157.401
 21
88.0925
 31
0.0
  0
LINE
  8
0
 62
     0
 10
157.401
 20
88.0925
 30
0.0
 11
157.484
 21
88.6107
 31
0.0
  0
LINE
  8
0
 62
     0
 10
157.484
 20
88.6107
 30
0.0
 11
157.401
 21
89.1286
 31
0.0
  0
LINE
  8
0
 62
     0
 10
157.401
 20
89.1286
 30
0.0
 11
157.164
 21
89.5946
 31
0.0
  0
LINE
  8
0
 62
     0
 10
157.164
 20
89.5946
 30
0.0
 11
156.792
 21
89.9664
 31
0.0
  0
LINE
  8
0
 62
     0
 10
156.792
 20
89.9664
 30
0.0
 11
156.326
 21
90.2035
 31
0.0
  0
LINE
  8
0
 62
     0
 10
156.326
 20
90.2035
 30
0.0
 11
155.808
 21
90.2864
 31
0.0
  0
LINE
  8
0
 62
     0
 10
155.808
 20
90.2864
 30
0.0
 11
155.291
 21
90.2035
 31
0.0
  0
LINE
  8
0
 62
     0
 10
79.4713
 20
90.2035
 30
0.0
 11
79.0042
 21
89.9664
 31
0.0
  0
LINE
  8
0
 62
     0
 10
79.0042
 20
89.9664
 30
0.0
 11
78.6335
 21
89.5946
 31
0.0
  0
LINE
  8
0
 62
     0
 10
78.6335
 20
89.5946
 30
0.0
 11
78.3953
 21
89.1286
 31
0.0
  0
LINE
  8
0
 62
     0
 10
78.3953
 20
89.1286
 30
0.0
 11
78.3138
 21
88.6107
 31
0.0
  0
LINE
  8
0
 62
     0
 10
78.3138
 20
88.6107
 30
0.0
 11
78.3953
 21
88.0925
 31
0.0
  0
LINE
  8
0
 62
     0
 10
78.3953
 20
88.0925
 30
0.0
 11
78.6335
 21
87.6268
 31
0.0
  0
LINE
  8
0
 62
     0
 10
78.6335
 20
87.6268
 30
0.0
 11
79.0042
 21
87.2546
 31
0.0
  0
LINE
  8
0
 62
     0
 10
79.0042
 20
87.2546
 30
0.0
 11
79.4713
 21
87.0176
 31
0.0
  0
LINE
  8
0
 62
     0
 10
79.4713
 20
87.0176
 30
0.0
 11
79.9895
 21
86.935
 31
0.0
  0
LINE
  8
0
 62
     0
 10
79.9895
 20
86.935
 30
0.0
 11
80.5064
 21
87.0176
 31
0.0
  0
LINE
  8
0
 62
     0
 10
80.5064
 20
87.0176
 30
0.0
 11
80.9734
 21
87.2546
 31
0.0
  0
LINE
  8
0
 62
     0
 10
80.9734
 20
87.2546
 30
0.0
 11
81.3442
 21
87.6268
 31
0.0
  0
LINE
  8
0
 62
     0
 10
81.3442
 20
87.6268
 30
0.0
 11
81.5827
 21
88.0925
 31
0.0
  0
LINE
  8
0
 62
     0
 10
81.5827
 20
88.0925
 30
0.0
 11
81.6638
 21
88.6107
 31
0.0
  0
LINE
  8
0
 62
     0
 10
81.6638
 20
88.6107
 30
0.0
 11
81.5827
 21
89.1286
 31
0.0
  0
LINE
  8
0
 62
     0
 10
81.5827
 20
89.1286
 30
0.0
 11
81.3442
 21
89.5946
 31
0.0
  0
LINE
  8
0
 62
     0
 10
81.3442
 20
89.5946
 30
0.0
 11
80.9734
 21
89.9664
 31
0.0
  0
LINE
  8
0
 62
     0
 10
80.9734
 20
89.9664
 30
0.0
 11
80.5064
 21
90.2035
 31
0.0
  0
LINE
  8
0
 62
     0
 10
80.5064
 20
90.2035
 30
0.0
 11
79.9895
 21
90.2864
 31
0.0
  0
LINE
  8
0
 62
     0
 10
79.9895
 20
90.2864
 30
0.0
 11
79.4713
 21
90.2035
 31
0.0
  0
ENDSEC
  0
EOF
