  0
SECTION
  2
HEADER
  9
$ACADVER
  1
AC1009
  9
$EXTMIN
 10
0.0
 20
0.0
 30
0.0
  9
$EXTMAX
 10
1000.0
 20
1000.0
 30
0.0
  9
$FILLMODE
 70
 0
  9
$SPLFRAME
 70
 1
  0
ENDSEC
  0
SECTION
  2
TABLES
  0
TABLE
  2
LAYER
 70
1
  0
LAYER
  2
0
 70
     0
 62
     7
  6
CONTINUOUS
  0
ENDTAB
  0
ENDSEC
  0
SECTION
  2
ENTITIES
  0
LINE
  8
0
 62
     0
 10
308.522
 20
92.6853
 30
0.0
 11
308.756
 21
92.6758
 31
0.0
  0
LINE
  8
0
 62
     0
 10
308.756
 20
92.6758
 30
0.0
 11
308.991
 21
92.6497
 31
0.0
  0
LINE
  8
0
 62
     0
 10
308.991
 20
92.6497
 30
0.0
 11
309.222
 21
92.6028
 31
0.0
  0
LINE
  8
0
 62
     0
 10
309.222
 20
92.6028
 30
0.0
 11
309.448
 21
92.5393
 31
0.0
  0
LINE
  8
0
 62
     0
 10
309.448
 20
92.5393
 30
0.0
 11
309.67
 21
92.4567
 31
0.0
  0
LINE
  8
0
 62
     0
 10
309.67
 20
92.4567
 30
0.0
 11
309.882
 21
92.359
 31
0.0
  0
LINE
  8
0
 62
     0
 10
309.882
 20
92.359
 30
0.0
 11
310.089
 21
92.2433
 31
0.0
  0
LINE
  8
0
 62
     0
 10
310.089
 20
92.2433
 30
0.0
 11
310.285
 21
92.1135
 31
0.0
  0
LINE
  8
0
 62
     0
 10
310.285
 20
92.1135
 30
0.0
 11
310.469
 21
91.9674
 31
0.0
  0
LINE
  8
0
 62
     0
 10
310.469
 20
91.9674
 30
0.0
 11
310.643
 21
91.8076
 31
0.0
  0
LINE
  8
0
 62
     0
 10
310.643
 20
91.8076
 30
0.0
 11
310.803
 21
91.634
 31
0.0
  0
LINE
  8
0
 62
     0
 10
310.803
 20
91.634
 30
0.0
 11
310.949
 21
91.4495
 31
0.0
  0
LINE
  8
0
 62
     0
 10
310.949
 20
91.4495
 30
0.0
 11
311.078
 21
91.2537
 31
0.0
  0
LINE
  8
0
 62
     0
 10
311.078
 20
91.2537
 30
0.0
 11
311.194
 21
91.047
 31
0.0
  0
LINE
  8
0
 62
     0
 10
311.194
 20
91.047
 30
0.0
 11
311.292
 21
90.8332
 31
0.0
  0
LINE
  8
0
 62
     0
 10
311.292
 20
90.8332
 30
0.0
 11
311.375
 21
90.6127
 31
0.0
  0
LINE
  8
0
 62
     0
 10
311.375
 20
90.6127
 30
0.0
 11
311.438
 21
90.3855
 31
0.0
  0
LINE
  8
0
 62
     0
 10
311.438
 20
90.3855
 30
0.0
 11
311.485
 21
90.1555
 31
0.0
  0
LINE
  8
0
 62
     0
 10
311.485
 20
90.1555
 30
0.0
 11
311.511
 21
89.9213
 31
0.0
  0
LINE
  8
0
 62
     0
 10
311.511
 20
89.9213
 30
0.0
 11
311.522
 21
89.6856
 31
0.0
  0
LINE
  8
0
 62
     0
 10
311.522
 20
89.6856
 30
0.0
 11
311.522
 21
3.33347
 31
0.0
  0
LINE
  8
0
 62
     0
 10
311.522
 20
3.33347
 30
0.0
 11
311.511
 21
3.09921
 31
0.0
  0
LINE
  8
0
 62
     0
 10
311.511
 20
3.09921
 30
0.0
 11
311.485
 21
2.86494
 31
0.0
  0
LINE
  8
0
 62
     0
 10
311.485
 20
2.86494
 30
0.0
 11
311.438
 21
2.63343
 31
0.0
  0
LINE
  8
0
 62
     0
 10
311.438
 20
2.63343
 30
0.0
 11
311.375
 21
2.40743
 31
0.0
  0
LINE
  8
0
 62
     0
 10
311.375
 20
2.40743
 30
0.0
 11
311.292
 21
2.18557
 31
0.0
  0
LINE
  8
0
 62
     0
 10
311.292
 20
2.18557
 30
0.0
 11
311.194
 21
1.97335
 31
0.0
  0
LINE
  8
0
 62
     0
 10
311.194
 20
1.97335
 30
0.0
 11
311.078
 21
1.76664
 31
0.0
  0
LINE
  8
0
 62
     0
 10
311.078
 20
1.76664
 30
0.0
 11
310.949
 21
1.57097
 31
0.0
  0
LINE
  8
0
 62
     0
 10
310.949
 20
1.57097
 30
0.0
 11
310.803
 21
1.38631
 31
0.0
  0
LINE
  8
0
 62
     0
 10
310.803
 20
1.38631
 30
0.0
 11
310.643
 21
1.21267
 31
0.0
  0
LINE
  8
0
 62
     0
 10
310.643
 20
1.21267
 30
0.0
 11
310.469
 21
1.05282
 31
0.0
  0
LINE
  8
0
 62
     0
 10
310.469
 20
1.05282
 30
0.0
 11
310.285
 21
0.906748
 31
0.0
  0
LINE
  8
0
 62
     0
 10
310.285
 20
0.906748
 30
0.0
 11
310.089
 21
0.777215
 31
0.0
  0
LINE
  8
0
 62
     0
 10
310.089
 20
0.777215
 30
0.0
 11
309.882
 21
0.661458
 31
0.0
  0
LINE
  8
0
 62
     0
 10
309.882
 20
0.661458
 30
0.0
 11
309.67
 21
0.563619
 31
0.0
  0
LINE
  8
0
 62
     0
 10
309.67
 20
0.563619
 30
0.0
 11
309.448
 21
0.480935
 31
0.0
  0
LINE
  8
0
 62
     0
 10
309.448
 20
0.480935
 30
0.0
 11
309.222
 21
0.417544
 31
0.0
  0
LINE
  8
0
 62
     0
 10
309.222
 20
0.417544
 30
0.0
 11
308.991
 21
0.370692
 31
0.0
  0
LINE
  8
0
 62
     0
 10
308.991
 20
0.370692
 30
0.0
 11
308.756
 21
0.34451
 31
0.0
  0
LINE
  8
0
 62
     0
 10
308.756
 20
0.34451
 30
0.0
 11
308.522
 21
0.333485
 31
0.0
  0
LINE
  8
0
 62
     0
 10
308.522
 20
0.333485
 30
0.0
 11
3.09507
 21
0.333485
 31
0.0
  0
LINE
  8
0
 62
     0
 10
3.09507
 20
0.333485
 30
0.0
 11
2.85943
 21
0.34451
 31
0.0
  0
LINE
  8
0
 62
     0
 10
2.85943
 20
0.34451
 30
0.0
 11
2.62516
 21
0.370692
 31
0.0
  0
LINE
  8
0
 62
     0
 10
2.62516
 20
0.370692
 30
0.0
 11
2.39503
 21
0.417544
 31
0.0
  0
LINE
  8
0
 62
     0
 10
2.39503
 20
0.417544
 30
0.0
 11
2.16765
 21
0.480935
 31
0.0
  0
LINE
  8
0
 62
     0
 10
2.16765
 20
0.480935
 30
0.0
 11
1.94717
 21
0.563619
 31
0.0
  0
LINE
  8
0
 62
     0
 10
1.94717
 20
0.563619
 30
0.0
 11
1.73357
 21
0.661458
 31
0.0
  0
LINE
  8
0
 62
     0
 10
1.73357
 20
0.661458
 30
0.0
 11
1.52687
 21
0.777215
 31
0.0
  0
LINE
  8
0
 62
     0
 10
1.52687
 20
0.777215
 30
0.0
 11
1.33119
 21
0.906748
 31
0.0
  0
LINE
  8
0
 62
     0
 10
1.33119
 20
0.906748
 30
0.0
 11
1.14653
 21
1.05282
 31
0.0
  0
LINE
  8
0
 62
     0
 10
1.14653
 20
1.05282
 30
0.0
 11
0.972894
 21
1.21267
 31
0.0
  0
LINE
  8
0
 62
     0
 10
0.972894
 20
1.21267
 30
0.0
 11
0.813043
 21
1.38631
 31
0.0
  0
LINE
  8
0
 62
     0
 10
0.813043
 20
1.38631
 30
0.0
 11
0.666972
 21
1.57097
 31
0.0
  0
LINE
  8
0
 62
     0
 10
0.666972
 20
1.57097
 30
0.0
 11
0.537436
 21
1.76664
 31
0.0
  0
LINE
  8
0
 62
     0
 10
0.537436
 20
1.76664
 30
0.0
 11
0.421679
 21
1.97335
 31
0.0
  0
LINE
  8
0
 62
     0
 10
0.421679
 20
1.97335
 30
0.0
 11
0.323839
 21
2.18557
 31
0.0
  0
LINE
  8
0
 62
     0
 10
0.323839
 20
2.18557
 30
0.0
 11
0.241157
 21
2.40743
 31
0.0
  0
LINE
  8
0
 62
     0
 10
0.241157
 20
2.40743
 30
0.0
 11
0.177767
 21
2.63343
 31
0.0
  0
LINE
  8
0
 62
     0
 10
0.177767
 20
2.63343
 30
0.0
 11
0.130914
 21
2.86494
 31
0.0
  0
LINE
  8
0
 62
     0
 10
0.130914
 20
2.86494
 30
0.0
 11
0.104731
 21
3.09921
 31
0.0
  0
LINE
  8
0
 62
     0
 10
0.104731
 20
3.09921
 30
0.0
 11
0.0950846
 21
3.33485
 31
0.0
  0
LINE
  8
0
 62
     0
 10
0.0950846
 20
3.33485
 30
0.0
 11
0.0950846
 21
89.6856
 31
0.0
  0
LINE
  8
0
 62
     0
 10
0.0950846
 20
89.6856
 30
0.0
 11
0.104731
 21
89.9213
 31
0.0
  0
LINE
  8
0
 62
     0
 10
0.104731
 20
89.9213
 30
0.0
 11
0.130914
 21
90.1555
 31
0.0
  0
LINE
  8
0
 62
     0
 10
0.130914
 20
90.1555
 30
0.0
 11
0.177767
 21
90.3855
 31
0.0
  0
LINE
  8
0
 62
     0
 10
0.177767
 20
90.3855
 30
0.0
 11
0.241157
 21
90.6127
 31
0.0
  0
LINE
  8
0
 62
     0
 10
0.241157
 20
90.6127
 30
0.0
 11
0.323839
 21
90.8332
 31
0.0
  0
LINE
  8
0
 62
     0
 10
0.323839
 20
90.8332
 30
0.0
 11
0.421679
 21
91.047
 31
0.0
  0
LINE
  8
0
 62
     0
 10
0.421679
 20
91.047
 30
0.0
 11
0.537436
 21
91.2537
 31
0.0
  0
LINE
  8
0
 62
     0
 10
0.537436
 20
91.2537
 30
0.0
 11
0.666972
 21
91.4495
 31
0.0
  0
LINE
  8
0
 62
     0
 10
0.666972
 20
91.4495
 30
0.0
 11
0.813043
 21
91.634
 31
0.0
  0
LINE
  8
0
 62
     0
 10
0.813043
 20
91.634
 30
0.0
 11
0.972894
 21
91.8076
 31
0.0
  0
LINE
  8
0
 62
     0
 10
0.972894
 20
91.8076
 30
0.0
 11
1.14653
 21
91.9674
 31
0.0
  0
LINE
  8
0
 62
     0
 10
1.14653
 20
91.9674
 30
0.0
 11
1.33119
 21
92.1135
 31
0.0
  0
LINE
  8
0
 62
     0
 10
1.33119
 20
92.1135
 30
0.0
 11
1.52687
 21
92.2433
 31
0.0
  0
LINE
  8
0
 62
     0
 10
1.52687
 20
92.2433
 30
0.0
 11
1.73357
 21
92.359
 31
0.0
  0
LINE
  8
0
 62
     0
 10
1.73357
 20
92.359
 30
0.0
 11
1.94717
 21
92.4567
 31
0.0
  0
LINE
  8
0
 62
     0
 10
1.94717
 20
92.4567
 30
0.0
 11
2.16765
 21
92.5393
 31
0.0
  0
LINE
  8
0
 62
     0
 10
2.16765
 20
92.5393
 30
0.0
 11
2.39503
 21
92.6028
 31
0.0
  0
LINE
  8
0
 62
     0
 10
2.39503
 20
92.6028
 30
0.0
 11
2.62516
 21
92.6497
 31
0.0
  0
LINE
  8
0
 62
     0
 10
2.62516
 20
92.6497
 30
0.0
 11
2.85943
 21
92.6758
 31
0.0
  0
LINE
  8
0
 62
     0
 10
2.85943
 20
92.6758
 30
0.0
 11
3.09507
 21
92.6853
 31
0.0
  0
LINE
  8
0
 62
     0
 10
3.09507
 20
92.6853
 30
0.0
 11
308.522
 21
92.6853
 31
0.0
  0
LINE
  8
0
 62
     0
 10
3.65181
 20
6.00273
 30
0.0
 11
3.18602
 21
5.76573
 31
0.0
  0
LINE
  8
0
 62
     0
 10
3.18602
 20
5.76573
 30
0.0
 11
2.81395
 21
5.39365
 31
0.0
  0
LINE
  8
0
 62
     0
 10
2.81395
 20
5.39365
 30
0.0
 11
2.57693
 21
4.92647
 31
0.0
  0
LINE
  8
0
 62
     0
 10
2.57693
 20
4.92647
 30
0.0
 11
2.49425
 21
4.40972
 31
0.0
  0
LINE
  8
0
 62
     0
 10
2.49425
 20
4.40972
 30
0.0
 11
2.57693
 21
3.8916
 31
0.0
  0
LINE
  8
0
 62
     0
 10
2.57693
 20
3.8916
 30
0.0
 11
2.81395
 21
3.42442
 31
0.0
  0
LINE
  8
0
 62
     0
 10
2.81395
 20
3.42442
 30
0.0
 11
3.18602
 21
3.05373
 31
0.0
  0
LINE
  8
0
 62
     0
 10
3.18602
 20
3.05373
 30
0.0
 11
3.65181
 21
2.81671
 31
0.0
  0
LINE
  8
0
 62
     0
 10
3.65181
 20
2.81671
 30
0.0
 11
4.16994
 21
2.73541
 31
0.0
  0
LINE
  8
0
 62
     0
 10
4.16994
 20
2.73541
 30
0.0
 11
4.6881
 21
2.81671
 31
0.0
  0
LINE
  8
0
 62
     0
 10
4.6881
 20
2.81671
 30
0.0
 11
5.15387
 21
3.05373
 31
0.0
  0
LINE
  8
0
 62
     0
 10
5.15387
 20
3.05373
 30
0.0
 11
5.52595
 21
3.42442
 31
0.0
  0
LINE
  8
0
 62
     0
 10
5.52595
 20
3.42442
 30
0.0
 11
5.76294
 21
3.8916
 31
0.0
  0
LINE
  8
0
 62
     0
 10
5.76294
 20
3.8916
 30
0.0
 11
5.84426
 21
4.40972
 31
0.0
  0
LINE
  8
0
 62
     0
 10
5.84426
 20
4.40972
 30
0.0
 11
5.76294
 21
4.92647
 31
0.0
  0
LINE
  8
0
 62
     0
 10
5.76294
 20
4.92647
 30
0.0
 11
5.52595
 21
5.39365
 31
0.0
  0
LINE
  8
0
 62
     0
 10
5.52595
 20
5.39365
 30
0.0
 11
5.15387
 21
5.76573
 31
0.0
  0
LINE
  8
0
 62
     0
 10
5.15387
 20
5.76573
 30
0.0
 11
4.6881
 21
6.00273
 31
0.0
  0
LINE
  8
0
 62
     0
 10
4.6881
 20
6.00273
 30
0.0
 11
4.16994
 21
6.08404
 31
0.0
  0
LINE
  8
0
 62
     0
 10
4.16994
 20
6.08404
 30
0.0
 11
3.65181
 21
6.00273
 31
0.0
  0
LINE
  8
0
 62
     0
 10
79.4713
 20
6.00273
 30
0.0
 11
79.0042
 21
5.76573
 31
0.0
  0
LINE
  8
0
 62
     0
 10
79.0042
 20
5.76573
 30
0.0
 11
78.6335
 21
5.39365
 31
0.0
  0
LINE
  8
0
 62
     0
 10
78.6335
 20
5.39365
 30
0.0
 11
78.3953
 21
4.92647
 31
0.0
  0
LINE
  8
0
 62
     0
 10
78.3953
 20
4.92647
 30
0.0
 11
78.3138
 21
4.40972
 31
0.0
  0
LINE
  8
0
 62
     0
 10
78.3138
 20
4.40972
 30
0.0
 11
78.3953
 21
3.8916
 31
0.0
  0
LINE
  8
0
 62
     0
 10
78.3953
 20
3.8916
 30
0.0
 11
78.6335
 21
3.42442
 31
0.0
  0
LINE
  8
0
 62
     0
 10
78.6335
 20
3.42442
 30
0.0
 11
79.0042
 21
3.05373
 31
0.0
  0
LINE
  8
0
 62
     0
 10
79.0042
 20
3.05373
 30
0.0
 11
79.4713
 21
2.81671
 31
0.0
  0
LINE
  8
0
 62
     0
 10
79.4713
 20
2.81671
 30
0.0
 11
79.9895
 21
2.73541
 31
0.0
  0
LINE
  8
0
 62
     0
 10
79.9895
 20
2.73541
 30
0.0
 11
80.5064
 21
2.81671
 31
0.0
  0
LINE
  8
0
 62
     0
 10
80.5064
 20
2.81671
 30
0.0
 11
80.9734
 21
3.05373
 31
0.0
  0
LINE
  8
0
 62
     0
 10
80.9734
 20
3.05373
 30
0.0
 11
81.3442
 21
3.42442
 31
0.0
  0
LINE
  8
0
 62
     0
 10
81.3442
 20
3.42442
 30
0.0
 11
81.5827
 21
3.8916
 31
0.0
  0
LINE
  8
0
 62
     0
 10
81.5827
 20
3.8916
 30
0.0
 11
81.6638
 21
4.40972
 31
0.0
  0
LINE
  8
0
 62
     0
 10
81.6638
 20
4.40972
 30
0.0
 11
81.5827
 21
4.92647
 31
0.0
  0
LINE
  8
0
 62
     0
 10
81.5827
 20
4.92647
 30
0.0
 11
81.3442
 21
5.39365
 31
0.0
  0
LINE
  8
0
 62
     0
 10
81.3442
 20
5.39365
 30
0.0
 11
80.9734
 21
5.76573
 31
0.0
  0
LINE
  8
0
 62
     0
 10
80.9734
 20
5.76573
 30
0.0
 11
80.5064
 21
6.00273
 31
0.0
  0
LINE
  8
0
 62
     0
 10
80.5064
 20
6.00273
 30
0.0
 11
79.9895
 21
6.08404
 31
0.0
  0
LINE
  8
0
 62
     0
 10
79.9895
 20
6.08404
 30
0.0
 11
79.4713
 21
6.00273
 31
0.0
  0
LINE
  8
0
 62
     0
 10
155.291
 20
6.00273
 30
0.0
 11
154.824
 21
5.76573
 31
0.0
  0
LINE
  8
0
 62
     0
 10
154.824
 20
5.76573
 30
0.0
 11
154.452
 21
5.39365
 31
0.0
  0
LINE
  8
0
 62
     0
 10
154.452
 20
5.39365
 30
0.0
 11
154.215
 21
4.92647
 31
0.0
  0
LINE
  8
0
 62
     0
 10
154.215
 20
4.92647
 30
0.0
 11
154.132
 21
4.40972
 31
0.0
  0
LINE
  8
0
 62
     0
 10
154.132
 20
4.40972
 30
0.0
 11
154.215
 21
3.8916
 31
0.0
  0
LINE
  8
0
 62
     0
 10
154.215
 20
3.8916
 30
0.0
 11
154.452
 21
3.42442
 31
0.0
  0
LINE
  8
0
 62
     0
 10
154.452
 20
3.42442
 30
0.0
 11
154.824
 21
3.05373
 31
0.0
  0
LINE
  8
0
 62
     0
 10
154.824
 20
3.05373
 30
0.0
 11
155.291
 21
2.81671
 31
0.0
  0
LINE
  8
0
 62
     0
 10
155.291
 20
2.81671
 30
0.0
 11
155.808
 21
2.73541
 31
0.0
  0
LINE
  8
0
 62
     0
 10
155.808
 20
2.73541
 30
0.0
 11
156.326
 21
2.81671
 31
0.0
  0
LINE
  8
0
 62
     0
 10
156.326
 20
2.81671
 30
0.0
 11
156.792
 21
3.05373
 31
0.0
  0
LINE
  8
0
 62
     0
 10
156.792
 20
3.05373
 30
0.0
 11
157.164
 21
3.42442
 31
0.0
  0
LINE
  8
0
 62
     0
 10
157.164
 20
3.42442
 30
0.0
 11
157.401
 21
3.8916
 31
0.0
  0
LINE
  8
0
 62
     0
 10
157.401
 20
3.8916
 30
0.0
 11
157.484
 21
4.40972
 31
0.0
  0
LINE
  8
0
 62
     0
 10
157.484
 20
4.40972
 30
0.0
 11
157.401
 21
4.92647
 31
0.0
  0
LINE
  8
0
 62
     0
 10
157.401
 20
4.92647
 30
0.0
 11
157.164
 21
5.39365
 31
0.0
  0
LINE
  8
0
 62
     0
 10
157.164
 20
5.39365
 30
0.0
 11
156.792
 21
5.76573
 31
0.0
  0
LINE
  8
0
 62
     0
 10
156.792
 20
5.76573
 30
0.0
 11
156.326
 21
6.00273
 31
0.0
  0
LINE
  8
0
 62
     0
 10
156.326
 20
6.00273
 30
0.0
 11
155.808
 21
6.08404
 31
0.0
  0
LINE
  8
0
 62
     0
 10
155.808
 20
6.08404
 30
0.0
 11
155.291
 21
6.00273
 31
0.0
  0
LINE
  8
0
 62
     0
 10
231.109
 20
6.00273
 30
0.0
 11
230.642
 21
5.76573
 31
0.0
  0
LINE
  8
0
 62
     0
 10
230.642
 20
5.76573
 30
0.0
 11
230.271
 21
5.39365
 31
0.0
  0
LINE
  8
0
 62
     0
 10
230.271
 20
5.39365
 30
0.0
 11
230.033
 21
4.92647
 31
0.0
  0
LINE
  8
0
 62
     0
 10
230.033
 20
4.92647
 30
0.0
 11
229.952
 21
4.40972
 31
0.0
  0
LINE
  8
0
 62
     0
 10
229.952
 20
4.40972
 30
0.0
 11
230.033
 21
3.8916
 31
0.0
  0
LINE
  8
0
 62
     0
 10
230.033
 20
3.8916
 30
0.0
 11
230.271
 21
3.42442
 31
0.0
  0
LINE
  8
0
 62
     0
 10
230.271
 20
3.42442
 30
0.0
 11
230.642
 21
3.05373
 31
0.0
  0
LINE
  8
0
 62
     0
 10
230.642
 20
3.05373
 30
0.0
 11
231.109
 21
2.81671
 31
0.0
  0
LINE
  8
0
 62
     0
 10
231.109
 20
2.81671
 30
0.0
 11
231.628
 21
2.73541
 31
0.0
  0
LINE
  8
0
 62
     0
 10
231.628
 20
2.73541
 30
0.0
 11
232.144
 21
2.81671
 31
0.0
  0
LINE
  8
0
 62
     0
 10
232.144
 20
2.81671
 30
0.0
 11
232.611
 21
3.05373
 31
0.0
  0
LINE
  8
0
 62
     0
 10
232.611
 20
3.05373
 30
0.0
 11
232.982
 21
3.42442
 31
0.0
  0
LINE
  8
0
 62
     0
 10
232.982
 20
3.42442
 30
0.0
 11
233.221
 21
3.8916
 31
0.0
  0
LINE
  8
0
 62
     0
 10
233.221
 20
3.8916
 30
0.0
 11
233.302
 21
4.40972
 31
0.0
  0
LINE
  8
0
 62
     0
 10
233.302
 20
4.40972
 30
0.0
 11
233.221
 21
4.92647
 31
0.0
  0
LINE
  8
0
 62
     0
 10
233.221
 20
4.92647
 30
0.0
 11
232.982
 21
5.39365
 31
0.0
  0
LINE
  8
0
 62
     0
 10
232.982
 20
5.39365
 30
0.0
 11
232.611
 21
5.76573
 31
0.0
  0
LINE
  8
0
 62
     0
 10
232.611
 20
5.76573
 30
0.0
 11
232.144
 21
6.00273
 31
0.0
  0
LINE
  8
0
 62
     0
 10
232.144
 20
6.00273
 30
0.0
 11
231.628
 21
6.08404
 31
0.0
  0
LINE
  8
0
 62
     0
 10
231.628
 20
6.08404
 30
0.0
 11
231.109
 21
6.00273
 31
0.0
  0
LINE
  8
0
 62
     0
 10
306.929
 20
6.00273
 30
0.0
 11
306.462
 21
5.76573
 31
0.0
  0
LINE
  8
0
 62
     0
 10
306.462
 20
5.76573
 30
0.0
 11
306.09
 21
5.39365
 31
0.0
  0
LINE
  8
0
 62
     0
 10
306.09
 20
5.39365
 30
0.0
 11
305.853
 21
4.92647
 31
0.0
  0
LINE
  8
0
 62
     0
 10
305.853
 20
4.92647
 30
0.0
 11
305.772
 21
4.40972
 31
0.0
  0
LINE
  8
0
 62
     0
 10
305.772
 20
4.40972
 30
0.0
 11
305.853
 21
3.8916
 31
0.0
  0
LINE
  8
0
 62
     0
 10
305.853
 20
3.8916
 30
0.0
 11
306.09
 21
3.42442
 31
0.0
  0
LINE
  8
0
 62
     0
 10
306.09
 20
3.42442
 30
0.0
 11
306.462
 21
3.05373
 31
0.0
  0
LINE
  8
0
 62
     0
 10
306.462
 20
3.05373
 30
0.0
 11
306.929
 21
2.81671
 31
0.0
  0
LINE
  8
0
 62
     0
 10
306.929
 20
2.81671
 30
0.0
 11
307.446
 21
2.73541
 31
0.0
  0
LINE
  8
0
 62
     0
 10
307.446
 20
2.73541
 30
0.0
 11
307.964
 21
2.81671
 31
0.0
  0
LINE
  8
0
 62
     0
 10
307.964
 20
2.81671
 30
0.0
 11
308.431
 21
3.05373
 31
0.0
  0
LINE
  8
0
 62
     0
 10
308.431
 20
3.05373
 30
0.0
 11
308.802
 21
3.42442
 31
0.0
  0
LINE
  8
0
 62
     0
 10
308.802
 20
3.42442
 30
0.0
 11
309.039
 21
3.8916
 31
0.0
  0
LINE
  8
0
 62
     0
 10
309.039
 20
3.8916
 30
0.0
 11
309.122
 21
4.40972
 31
0.0
  0
LINE
  8
0
 62
     0
 10
309.122
 20
4.40972
 30
0.0
 11
309.039
 21
4.92647
 31
0.0
  0
LINE
  8
0
 62
     0
 10
309.039
 20
4.92647
 30
0.0
 11
308.802
 21
5.39365
 31
0.0
  0
LINE
  8
0
 62
     0
 10
308.802
 20
5.39365
 30
0.0
 11
308.431
 21
5.76573
 31
0.0
  0
LINE
  8
0
 62
     0
 10
308.431
 20
5.76573
 30
0.0
 11
307.964
 21
6.00273
 31
0.0
  0
LINE
  8
0
 62
     0
 10
307.964
 20
6.00273
 30
0.0
 11
307.446
 21
6.08404
 31
0.0
  0
LINE
  8
0
 62
     0
 10
307.446
 20
6.08404
 30
0.0
 11
306.929
 21
6.00273
 31
0.0
  0
LINE
  8
0
 62
     0
 10
3.65181
 20
90.2035
 30
0.0
 11
3.18602
 21
89.9664
 31
0.0
  0
LINE
  8
0
 62
     0
 10
3.18602
 20
89.9664
 30
0.0
 11
2.81395
 21
89.5946
 31
0.0
  0
LINE
  8
0
 62
     0
 10
2.81395
 20
89.5946
 30
0.0
 11
2.57693
 21
89.1286
 31
0.0
  0
LINE
  8
0
 62
     0
 10
2.57693
 20
89.1286
 30
0.0
 11
2.49425
 21
88.6107
 31
0.0
  0
LINE
  8
0
 62
     0
 10
2.49425
 20
88.6107
 30
0.0
 11
2.57693
 21
88.0925
 31
0.0
  0
LINE
  8
0
 62
     0
 10
2.57693
 20
88.0925
 30
0.0
 11
2.81395
 21
87.6268
 31
0.0
  0
LINE
  8
0
 62
     0
 10
2.81395
 20
87.6268
 30
0.0
 11
3.18602
 21
87.2546
 31
0.0
  0
LINE
  8
0
 62
     0
 10
3.18602
 20
87.2546
 30
0.0
 11
3.65181
 21
87.0176
 31
0.0
  0
LINE
  8
0
 62
     0
 10
3.65181
 20
87.0176
 30
0.0
 11
4.16994
 21
86.935
 31
0.0
  0
LINE
  8
0
 62
     0
 10
4.16994
 20
86.935
 30
0.0
 11
4.6881
 21
87.0176
 31
0.0
  0
LINE
  8
0
 62
     0
 10
4.6881
 20
87.0176
 30
0.0
 11
5.15387
 21
87.2546
 31
0.0
  0
LINE
  8
0
 62
     0
 10
5.15387
 20
87.2546
 30
0.0
 11
5.52595
 21
87.6268
 31
0.0
  0
LINE
  8
0
 62
     0
 10
5.52595
 20
87.6268
 30
0.0
 11
5.76294
 21
88.0925
 31
0.0
  0
LINE
  8
0
 62
     0
 10
5.76294
 20
88.0925
 30
0.0
 11
5.84426
 21
88.6107
 31
0.0
  0
LINE
  8
0
 62
     0
 10
5.84426
 20
88.6107
 30
0.0
 11
5.76294
 21
89.1286
 31
0.0
  0
LINE
  8
0
 62
     0
 10
5.76294
 20
89.1286
 30
0.0
 11
5.52595
 21
89.5946
 31
0.0
  0
LINE
  8
0
 62
     0
 10
5.52595
 20
89.5946
 30
0.0
 11
5.15387
 21
89.9664
 31
0.0
  0
LINE
  8
0
 62
     0
 10
5.15387
 20
89.9664
 30
0.0
 11
4.6881
 21
90.2035
 31
0.0
  0
LINE
  8
0
 62
     0
 10
4.6881
 20
90.2035
 30
0.0
 11
4.16994
 21
90.285
 31
0.0
  0
LINE
  8
0
 62
     0
 10
4.16994
 20
90.285
 30
0.0
 11
3.65181
 21
90.2035
 31
0.0
  0
LINE
  8
0
 62
     0
 10
306.929
 20
90.2035
 30
0.0
 11
306.462
 21
89.9664
 31
0.0
  0
LINE
  8
0
 62
     0
 10
306.462
 20
89.9664
 30
0.0
 11
306.09
 21
89.5946
 31
0.0
  0
LINE
  8
0
 62
     0
 10
306.09
 20
89.5946
 30
0.0
 11
305.853
 21
89.1286
 31
0.0
  0
LINE
  8
0
 62
     0
 10
305.853
 20
89.1286
 30
0.0
 11
305.772
 21
88.6107
 31
0.0
  0
LINE
  8
0
 62
     0
 10
305.772
 20
88.6107
 30
0.0
 11
305.853
 21
88.0925
 31
0.0
  0
LINE
  8
0
 62
     0
 10
305.853
 20
88.0925
 30
0.0
 11
306.09
 21
87.6268
 31
0.0
  0
LINE
  8
0
 62
     0
 10
306.09
 20
87.6268
 30
0.0
 11
306.462
 21
87.2546
 31
0.0
  0
LINE
  8
0
 62
     0
 10
306.462
 20
87.2546
 30
0.0
 11
306.929
 21
87.0176
 31
0.0
  0
LINE
  8
0
 62
     0
 10
306.929
 20
87.0176
 30
0.0
 11
307.446
 21
86.935
 31
0.0
  0
LINE
  8
0
 62
     0
 10
307.446
 20
86.935
 30
0.0
 11
307.964
 21
87.0176
 31
0.0
  0
LINE
  8
0
 62
     0
 10
307.964
 20
87.0176
 30
0.0
 11
308.431
 21
87.2546
 31
0.0
  0
LINE
  8
0
 62
     0
 10
308.431
 20
87.2546
 30
0.0
 11
308.802
 21
87.6268
 31
0.0
  0
LINE
  8
0
 62
     0
 10
308.802
 20
87.6268
 30
0.0
 11
309.039
 21
88.0925
 31
0.0
  0
LINE
  8
0
 62
     0
 10
309.039
 20
88.0925
 30
0.0
 11
309.122
 21
88.6107
 31
0.0
  0
LINE
  8
0
 62
     0
 10
309.122
 20
88.6107
 30
0.0
 11
309.039
 21
89.1286
 31
0.0
  0
LINE
  8
0
 62
     0
 10
309.039
 20
89.1286
 30
0.0
 11
308.802
 21
89.5946
 31
0.0
  0
LINE
  8
0
 62
     0
 10
308.802
 20
89.5946
 30
0.0
 11
308.431
 21
89.9664
 31
0.0
  0
LINE
  8
0
 62
     0
 10
308.431
 20
89.9664
 30
0.0
 11
307.964
 21
90.2035
 31
0.0
  0
LINE
  8
0
 62
     0
 10
307.964
 20
90.2035
 30
0.0
 11
307.446
 21
90.2864
 31
0.0
  0
LINE
  8
0
 62
     0
 10
307.446
 20
90.2864
 30
0.0
 11
306.929
 21
90.2035
 31
0.0
  0
LINE
  8
0
 62
     0
 10
231.109
 20
90.2035
 30
0.0
 11
230.642
 21
89.9664
 31
0.0
  0
LINE
  8
0
 62
     0
 10
230.642
 20
89.9664
 30
0.0
 11
230.271
 21
89.5946
 31
0.0
  0
LINE
  8
0
 62
     0
 10
230.271
 20
89.5946
 30
0.0
 11
230.033
 21
89.1286
 31
0.0
  0
LINE
  8
0
 62
     0
 10
230.033
 20
89.1286
 30
0.0
 11
229.952
 21
88.6107
 31
0.0
  0
LINE
  8
0
 62
     0
 10
229.952
 20
88.6107
 30
0.0
 11
230.033
 21
88.0925
 31
0.0
  0
LINE
  8
0
 62
     0
 10
230.033
 20
88.0925
 30
0.0
 11
230.271
 21
87.6268
 31
0.0
  0
LINE
  8
0
 62
     0
 10
230.271
 20
87.6268
 30
0.0
 11
230.642
 21
87.2546
 31
0.0
  0
LINE
  8
0
 62
     0
 10
230.642
 20
87.2546
 30
0.0
 11
231.109
 21
87.0176
 31
0.0
  0
LINE
  8
0
 62
     0
 10
231.109
 20
87.0176
 30
0.0
 11
231.628
 21
86.935
 31
0.0
  0
LINE
  8
0
 62
     0
 10
231.628
 20
86.935
 30
0.0
 11
232.144
 21
87.0176
 31
0.0
  0
LINE
  8
0
 62
     0
 10
232.144
 20
87.0176
 30
0.0
 11
232.611
 21
87.2546
 31
0.0
  0
LINE
  8
0
 62
     0
 10
232.611
 20
87.2546
 30
0.0
 11
232.982
 21
87.6268
 31
0.0
  0
LINE
  8
0
 62
     0
 10
232.982
 20
87.6268
 30
0.0
 11
233.221
 21
88.0925
 31
0.0
  0
LINE
  8
0
 62
     0
 10
233.221
 20
88.0925
 30
0.0
 11
233.302
 21
88.6107
 31
0.0
  0
LINE
  8
0
 62
     0
 10
233.302
 20
88.6107
 30
0.0
 11
233.221
 21
89.1286
 31
0.0
  0
LINE
  8
0
 62
     0
 10
233.221
 20
89.1286
 30
0.0
 11
232.982
 21
89.5946
 31
0.0
  0
LINE
  8
0
 62
     0
 10
232.982
 20
89.5946
 30
0.0
 11
232.611
 21
89.9664
 31
0.0
  0
LINE
  8
0
 62
     0
 10
232.611
 20
89.9664
 30
0.0
 11
232.144
 21
90.2035
 31
0.0
  0
LINE
  8
0
 62
     0
 10
232.144
 20
90.2035
 30
0.0
 11
231.628
 21
90.2864
 31
0.0
  0
LINE
  8
0
 62
     0
 10
231.628
 20
90.2864
 30
0.0
 11
231.109
 21
90.2035
 31
0.0
  0
LINE
  8
0
 62
     0
 10
155.291
 20
90.2035
 30
0.0
 11
154.824
 21
89.9664
 31
0.0
  0
LINE
  8
0
 62
     0
 10
154.824
 20
89.9664
 30
0.0
 11
154.452
 21
89.5946
 31
0.0
  0
LINE
  8
0
 62
     0
 10
154.452
 20
89.5946
 30
0.0
 11
154.215
 21
89.1286
 31
0.0
  0
LINE
  8
0
 62
     0
 10
154.215
 20
89.1286
 30
0.0
 11
154.132
 21
88.6107
 31
0.0
  0
LINE
  8
0
 62
     0
 10
154.132
 20
88.6107
 30
0.0
 11
154.215
 21
88.0925
 31
0.0
  0
LINE
  8
0
 62
     0
 10
154.215
 20
88.0925
 30
0.0
 11
154.452
 21
87.6268
 31
0.0
  0
LINE
  8
0
 62
     0
 10
154.452
 20
87.6268
 30
0.0
 11
154.824
 21
87.2546
 31
0.0
  0
LINE
  8
0
 62
     0
 10
154.824
 20
87.2546
 30
0.0
 11
155.291
 21
87.0176
 31
0.0
  0
LINE
  8
0
 62
     0
 10
155.291
 20
87.0176
 30
0.0
 11
155.808
 21
86.935
 31
0.0
  0
LINE
  8
0
 62
     0
 10
155.808
 20
86.935
 30
0.0
 11
156.326
 21
87.0176
 31
0.0
  0
LINE
  8
0
 62
     0
 10
156.326
 20
87.0176
 30
0.0
 11
156.792
 21
87.2546
 31
0.0
  0
LINE
  8
0
 62
     0
 10
156.792
 20
87.2546
 30
0.0
 11
157.164
 21
87.6268
 31
0.0
  0
LINE
  8
0
 62
     0
 10
157.164
 20
87.6268
 30
0.0
 11
157.401
 21
88.0925
 31
0.0
  0
LINE
  8
0
 62
     0
 10
157.401
 20
88.0925
 30
0.0
 11
157.484
 21
88.6107
 31
0.0
  0
LINE
  8
0
 62
     0
 10
157.484
 20
88.6107
 30
0.0
 11
157.401
 21
89.1286
 31
0.0
  0
LINE
  8
0
 62
     0
 10
157.401
 20
89.1286
 30
0.0
 11
157.164
 21
89.5946
 31
0.0
  0
LINE
  8
0
 62
     0
 10
157.164
 20
89.5946
 30
0.0
 11
156.792
 21
89.9664
 31
0.0
  0
LINE
  8
0
 62
     0
 10
156.792
 20
89.9664
 30
0.0
 11
156.326
 21
90.2035
 31
0.0
  0
LINE
  8
0
 62
     0
 10
156.326
 20
90.2035
 30
0.0
 11
155.808
 21
90.2864
 31
0.0
  0
LINE
  8
0
 62
     0
 10
155.808
 20
90.2864
 30
0.0
 11
155.291
 21
90.2035
 31
0.0
  0
LINE
  8
0
 62
     0
 10
79.4713
 20
90.2035
 30
0.0
 11
79.0042
 21
89.9664
 31
0.0
  0
LINE
  8
0
 62
     0
 10
79.0042
 20
89.9664
 30
0.0
 11
78.6335
 21
89.5946
 31
0.0
  0
LINE
  8
0
 62
     0
 10
78.6335
 20
89.5946
 30
0.0
 11
78.3953
 21
89.1286
 31
0.0
  0
LINE
  8
0
 62
     0
 10
78.3953
 20
89.1286
 30
0.0
 11
78.3138
 21
88.6107
 31
0.0
  0
LINE
  8
0
 62
     0
 10
78.3138
 20
88.6107
 30
0.0
 11
78.3953
 21
88.0925
 31
0.0
  0
LINE
  8
0
 62
     0
 10
78.3953
 20
88.0925
 30
0.0
 11
78.6335
 21
87.6268
 31
0.0
  0
LINE
  8
0
 62
     0
 10
78.6335
 20
87.6268
 30
0.0
 11
79.0042
 21
87.2546
 31
0.0
  0
LINE
  8
0
 62
     0
 10
79.0042
 20
87.2546
 30
0.0
 11
79.4713
 21
87.0176
 31
0.0
  0
LINE
  8
0
 62
     0
 10
79.4713
 20
87.0176
 30
0.0
 11
79.9895
 21
86.935
 31
0.0
  0
LINE
  8
0
 62
     0
 10
79.9895
 20
86.935
 30
0.0
 11
80.5064
 21
87.0176
 31
0.0
  0
LINE
  8
0
 62
     0
 10
80.5064
 20
87.0176
 30
0.0
 11
80.9734
 21
87.2546
 31
0.0
  0
LINE
  8
0
 62
     0
 10
80.9734
 20
87.2546
 30
0.0
 11
81.3442
 21
87.6268
 31
0.0
  0
LINE
  8
0
 62
     0
 10
81.3442
 20
87.6268
 30
0.0
 11
81.5827
 21
88.0925
 31
0.0
  0
LINE
  8
0
 62
     0
 10
81.5827
 20
88.0925
 30
0.0
 11
81.6638
 21
88.6107
 31
0.0
  0
LINE
  8
0
 62
     0
 10
81.6638
 20
88.6107
 30
0.0
 11
81.5827
 21
89.1286
 31
0.0
  0
LINE
  8
0
 62
     0
 10
81.5827
 20
89.1286
 30
0.0
 11
81.3442
 21
89.5946
 31
0.0
  0
LINE
  8
0
 62
     0
 10
81.3442
 20
89.5946
 30
0.0
 11
80.9734
 21
89.9664
 31
0.0
  0
LINE
  8
0
 62
     0
 10
80.9734
 20
89.9664
 30
0.0
 11
80.5064
 21
90.2035
 31
0.0
  0
LINE
  8
0
 62
     0
 10
80.5064
 20
90.2035
 30
0.0
 11
79.9895
 21
90.2864
 31
0.0
  0
LINE
  8
0
 62
     0
 10
79.9895
 20
90.2864
 30
0.0
 11
79.4713
 21
90.2035
 31
0.0
  0
ENDSEC
  0
EOF
